    <svg xmlns="http://www.w3.org/2000/svg" style="display:none;">
        <symbol id="arrow-down"  viewBox="0 0 15 10" fill="none" xmlns="http://www.w3.org/2000/svg">
            <path d="M12.5 3L7.50003 8L2.5 3" stroke="white" stroke-width="3" stroke-miterlimit="10" stroke-linecap="square" stroke-linejoin="round" />
        </symbol>
        <symbol id="sun" viewBox="0 0 23 23" fill="none" xmlns="http://www.w3.org/2000/svg">
            <path d="M11.3495 5.62573C10.0884 5.6255 8.85553 5.99925 7.80681 6.69973C6.7581 7.40021 5.94066 8.39594 5.45788 9.56101C4.9751 10.7261 4.84865 12.0082 5.09454 13.2451C5.34042 14.482 5.94759 15.6183 6.83926 16.5101C7.73093 17.402 8.86705 18.0094 10.1039 18.2555C11.3408 18.5016 12.6229 18.3754 13.7881 17.8929C14.9532 17.4103 15.9492 16.5931 16.6498 15.5445C17.3505 14.496 17.7245 13.2632 17.7245 12.002C17.7228 10.3117 17.0506 8.69105 15.8555 7.49568C14.6604 6.30031 13.0399 5.62782 11.3495 5.62573Z" fill="#21E786" />
            <path d="M21.4848 10.877H19.986C19.6876 10.877 19.4014 10.9955 19.1904 11.2065C18.9794 11.4175 18.8608 11.7037 18.8608 12.0021C18.8608 12.3006 18.9794 12.5868 19.1904 12.7978C19.4014 13.0088 19.6876 13.1273 19.986 13.1273H21.4848C21.7832 13.1273 22.0694 13.0088 22.2804 12.7978C22.4914 12.5868 22.61 12.3006 22.61 12.0021C22.61 11.7037 22.4914 11.4175 22.2804 11.2065C22.0694 10.9955 21.7832 10.877 21.4848 10.877Z" fill="#21E786" />
            <path d="M11.3495 19.4998C11.0513 19.5002 10.7655 19.6189 10.5547 19.8299C10.3439 20.0408 10.2254 20.3267 10.2251 20.6249V22.1251C10.2251 22.4233 10.3436 22.7093 10.5544 22.9202C10.7653 23.131 11.0513 23.2495 11.3495 23.2495C11.6477 23.2495 11.9336 23.131 12.1445 22.9202C12.3554 22.7093 12.4738 22.4233 12.4738 22.1251V20.6249C12.4736 20.3267 12.3551 20.0408 12.1443 19.8299C11.9336 19.6189 11.6477 19.5002 11.3495 19.4998Z" fill="#21E786" />
            <path d="M3.85657 12.0021C3.85631 11.7039 3.73778 11.418 3.52699 11.2071C3.31619 10.9961 3.03033 10.8774 2.73212 10.877H1.23359C0.935168 10.877 0.648972 10.9955 0.437958 11.2065C0.226945 11.4175 0.108398 11.7037 0.108398 12.0021C0.108398 12.3006 0.226945 12.5868 0.437958 12.7978C0.648972 13.0088 0.935168 13.1273 1.23359 13.1273H2.73212C3.03033 13.1269 3.31619 13.0082 3.52699 12.7972C3.73779 12.5863 3.85631 12.3003 3.85657 12.0021Z" fill="#21E786" />
            <path d="M11.3499 4.50045C11.6481 4.5 11.9339 4.38129 12.1447 4.17036C12.3555 3.95942 12.474 3.67349 12.4743 3.37528V1.87509C12.4743 1.57689 12.3558 1.29091 12.145 1.08005C11.9341 0.869191 11.6481 0.750732 11.3499 0.750732C11.0517 0.750732 10.7658 0.869191 10.5549 1.08005C10.344 1.29091 10.2256 1.57689 10.2256 1.87509V3.37528C10.2258 3.67347 10.3443 3.9594 10.5551 4.17034C10.7658 4.38128 11.0517 4.5 11.3499 4.50045Z" fill="#21E786" />
            <path d="M18.2447 6.69707L19.3055 5.6363C19.4102 5.53197 19.4934 5.408 19.5501 5.2715C19.6069 5.135 19.6362 4.98864 19.6364 4.8408C19.6365 4.69296 19.6075 4.54655 19.551 4.40993C19.4945 4.27332 19.4116 4.14919 19.3071 4.04465C19.2025 3.94011 19.0784 3.85722 18.9418 3.80071C18.8052 3.7442 18.6587 3.71519 18.5109 3.71533C18.3631 3.71548 18.2167 3.74478 18.0802 3.80155C17.9437 3.85833 17.8197 3.94147 17.7154 4.04621L16.6546 5.10701C16.5499 5.21134 16.4667 5.33531 16.41 5.47181C16.3532 5.60831 16.3239 5.75467 16.3237 5.90251C16.3236 6.05035 16.3526 6.19677 16.4091 6.33338C16.4656 6.46999 16.5485 6.59412 16.6531 6.69865C16.7576 6.80319 16.8817 6.88609 17.0183 6.94259C17.1549 6.9991 17.3014 7.02811 17.4492 7.02797C17.597 7.02782 17.7434 6.99852 17.8799 6.94174C18.0164 6.88496 18.1404 6.80182 18.2447 6.69707Z" fill="#21E786" />
            <path d="M18.2445 17.3073C18.1402 17.2026 18.0162 17.1195 17.8797 17.0627C17.7432 17.006 17.5969 16.9767 17.4491 16.9766C17.3013 16.9764 17.1549 17.0055 17.0183 17.062C16.8817 17.1185 16.7576 17.2014 16.653 17.3059C16.5485 17.4104 16.4656 17.5345 16.4091 17.6711C16.3526 17.8077 16.3236 17.9541 16.3237 18.1019C16.3239 18.2497 16.3531 18.3961 16.4099 18.5326C16.4666 18.6691 16.5497 18.793 16.6544 18.8974L17.7152 19.9581C17.8196 20.0628 17.9435 20.146 18.08 20.2027C18.2165 20.2594 18.3629 20.2887 18.5107 20.2889C18.6585 20.289 18.8049 20.26 18.9415 20.2035C19.0781 20.1469 19.2022 20.0641 19.3067 19.9595C19.4112 19.855 19.4941 19.7309 19.5506 19.5943C19.6071 19.4577 19.6362 19.3113 19.636 19.1635C19.6359 19.0157 19.6066 18.8693 19.5499 18.7329C19.4931 18.5964 19.41 18.4724 19.3053 18.3681L18.2445 17.3073Z" fill="#21E786" />
            <path d="M4.45432 17.307L3.39354 18.3678C3.28876 18.4722 3.20559 18.5961 3.14879 18.7326C3.09198 18.8691 3.06266 19.0155 3.0625 19.1634C3.06234 19.3112 3.09134 19.4577 3.14785 19.5943C3.20436 19.7309 3.28726 19.8551 3.39181 19.9596C3.49636 20.0642 3.62051 20.1471 3.75714 20.2036C3.89377 20.2601 4.04021 20.2891 4.18807 20.2889C4.33592 20.2888 4.48229 20.2595 4.6188 20.2026C4.75531 20.1458 4.87928 20.0627 4.9836 19.9579L6.0444 18.8971C6.14911 18.7928 6.23221 18.6688 6.28896 18.5323C6.34571 18.3958 6.37499 18.2495 6.37512 18.1017C6.37525 17.9538 6.34623 17.8075 6.28972 17.6709C6.23321 17.5343 6.15032 17.4102 6.0458 17.3056C5.94127 17.2011 5.81716 17.1182 5.68057 17.0617C5.54398 17.0052 5.39759 16.9762 5.24977 16.9763C5.10195 16.9764 4.95561 17.0057 4.81911 17.0625C4.68262 17.1192 4.55866 17.2023 4.45432 17.307Z" fill="#21E786" />
            <path d="M4.45435 6.69703C4.55872 6.80158 4.68268 6.88454 4.81913 6.94116C4.95558 6.99778 5.10185 7.02696 5.24959 7.02702C5.39732 7.02708 5.54362 6.99803 5.68012 6.94152C5.81662 6.88502 5.94064 6.80216 6.04511 6.6977C6.14957 6.59324 6.23242 6.46921 6.28893 6.33271C6.34544 6.19621 6.37449 6.04991 6.37442 5.90218C6.37436 5.75444 6.34519 5.60817 6.28856 5.47172C6.23194 5.33527 6.14898 5.21131 6.04443 5.10694L4.98363 4.04614C4.87933 3.94125 4.75536 3.85798 4.61882 3.80109C4.48228 3.7442 4.33586 3.71481 4.18794 3.7146C4.04002 3.71439 3.89352 3.74338 3.75682 3.79989C3.62012 3.8564 3.49592 3.93933 3.39133 4.04392C3.28673 4.14852 3.20381 4.27272 3.1473 4.40942C3.09079 4.54611 3.06181 4.69262 3.06201 4.84054C3.06222 4.98845 3.09161 5.13488 3.1485 5.27142C3.2054 5.40795 3.28867 5.53193 3.39356 5.63623L4.45435 6.69703Z" fill="#21E786" />
        </symbol>
        <symbol id="discord"
            viewBox="0 0 24 19" fill="none">
            <path d="M20.317 2.15557C18.7873 1.45369 17.147 0.936576 15.4319 0.640403C15.4007 0.634687 15.3695 0.648971 15.3534 0.677541C15.1424 1.05276 14.9087 1.54225 14.7451 1.927C12.9004 1.65083 11.0652 1.65083 9.25832 1.927C9.09465 1.5337 8.85248 1.05276 8.64057 0.677541C8.62449 0.649924 8.59328 0.63564 8.56205 0.640403C6.84791 0.93563 5.20756 1.45275 3.67693 2.15557C3.66368 2.16129 3.65233 2.17082 3.64479 2.18319C0.533392 6.83155 -0.31895 11.3657 0.0991801 15.8436C0.101072 15.8655 0.11337 15.8864 0.130398 15.8997C2.18321 17.4073 4.17171 18.3225 6.12328 18.9291C6.15451 18.9386 6.18761 18.9272 6.20748 18.9015C6.66913 18.2711 7.08064 17.6063 7.43348 16.9073C7.4543 16.8664 7.43442 16.8178 7.39186 16.8016C6.73913 16.554 6.1176 16.2521 5.51973 15.9093C5.47244 15.8816 5.46865 15.814 5.51216 15.7816C5.63797 15.6873 5.76382 15.5893 5.88396 15.4902C5.90569 15.4721 5.93598 15.4683 5.96153 15.4797C9.88928 17.273 14.1415 17.273 18.023 15.4797C18.0485 15.4674 18.0788 15.4712 18.1015 15.4893C18.2216 15.5883 18.3475 15.6873 18.4742 15.7816C18.5177 15.814 18.5149 15.8816 18.4676 15.9093C17.8697 16.2588 17.2482 16.554 16.5945 16.8006C16.552 16.8168 16.533 16.8664 16.5538 16.9073C16.9143 17.6054 17.3258 18.2701 17.7789 18.9005C17.7978 18.9272 17.8319 18.9386 17.8631 18.9291C19.8241 18.3225 21.8126 17.4073 23.8654 15.8997C23.8834 15.8864 23.8948 15.8664 23.8967 15.8445C24.3971 10.6676 23.0585 6.17064 20.3482 2.18414C20.3416 2.17082 20.3303 2.16129 20.317 2.15557ZM8.02002 13.117C6.8375 13.117 5.86313 12.0313 5.86313 10.6981C5.86313 9.36477 6.8186 8.27912 8.02002 8.27912C9.23087 8.27912 10.1958 9.3743 10.1769 10.6981C10.1769 12.0313 9.22141 13.117 8.02002 13.117ZM15.9947 13.117C14.8123 13.117 13.8379 12.0313 13.8379 10.6981C13.8379 9.36477 14.7933 8.27912 15.9947 8.27912C17.2056 8.27912 18.1705 9.3743 18.1516 10.6981C18.1516 12.0313 17.2056 13.117 15.9947 13.117Z" fill="white" />
        </symbol>
        <symbol id="wallet" viewBox="0 0 22 19" fill="none">
            <path d="M21.5 15V16.875C21.5 17.9093 20.6585 18.75 19.625 18.75H3.5C1.8455 18.75 0.5 17.4045 0.5 15.75C0.5 15.75 0.5 3.01125 0.5 3C0.5 1.3455 1.8455 0 3.5 0H17.375C17.9967 0 18.5 0.504 18.5 1.125C18.5 1.746 17.9967 2.25 17.375 2.25H3.5C3.08675 2.25 2.75 2.586 2.75 3C2.75 3.414 3.08675 3.75 3.5 3.75H19.625C20.6585 3.75 21.5 4.59075 21.5 5.625V7.5H17.75C15.6823 7.5 14 9.18225 14 11.25C14 13.3177 15.6823 15 17.75 15H21.5Z" fill="#141B22" />
            <path d="M21.5 9V13.5H17.75C16.5073 13.5 15.5 12.4927 15.5 11.25C15.5 10.0073 16.5073 9 17.75 9H21.5Z" fill="#141B22" />
        </symbol>
                <symbol id="instagram-ico" viewBox="0 0 20 20" fill="none">
            <g clip-path="url(#clip0_1_7867)">
        <path fill-rule="evenodd" clip-rule="evenodd" d="M5.87727 0.06C6.94364 0.0109091 7.28364 0 10 0C12.7164 0 13.0564 0.0118182 14.1218 0.06C15.1873 0.108182 15.9145 0.278182 16.5509 0.524545C17.2173 0.776364 17.8218 1.17 18.3218 1.67909C18.8309 2.17818 19.2236 2.78182 19.4745 3.44909C19.7218 4.08545 19.8909 4.81273 19.94 5.87636C19.9891 6.94455 20 7.28454 20 10C20 12.7164 19.9882 13.0564 19.94 14.1227C19.8918 15.1864 19.7218 15.9136 19.4745 16.55C19.2236 17.2174 18.8303 17.822 18.3218 18.3218C17.8218 18.8309 17.2173 19.2236 16.5509 19.4745C15.9145 19.7218 15.1873 19.8909 14.1236 19.94C13.0564 19.9891 12.7164 20 10 20C7.28364 20 6.94364 19.9882 5.87727 19.94C4.81364 19.8918 4.08636 19.7218 3.45 19.4745C2.78265 19.2236 2.17802 18.8302 1.67818 18.3218C1.16944 17.8224 0.775741 17.2181 0.524545 16.5509C0.278182 15.9145 0.109091 15.1873 0.06 14.1236C0.0109091 13.0555 0 12.7155 0 10C0 7.28364 0.0118182 6.94364 0.06 5.87818C0.108182 4.81273 0.278182 4.08545 0.524545 3.44909C0.776112 2.78189 1.17011 2.17756 1.67909 1.67818C2.17822 1.16955 2.78225 0.775858 3.44909 0.524545C4.08545 0.278182 4.81273 0.109091 5.87636 0.06H5.87727ZM14.0409 1.86C12.9864 1.81182 12.67 1.80182 10 1.80182C7.33 1.80182 7.01364 1.81182 5.95909 1.86C4.98364 1.90455 4.45455 2.06727 4.10182 2.20455C3.63545 2.38636 3.30182 2.60182 2.95182 2.95182C2.62004 3.27459 2.36471 3.66753 2.20455 4.10182C2.06727 4.45455 1.90455 4.98364 1.86 5.95909C1.81182 7.01364 1.80182 7.33 1.80182 10C1.80182 12.67 1.81182 12.9864 1.86 14.0409C1.90455 15.0164 2.06727 15.5455 2.20455 15.8982C2.36455 16.3318 2.62 16.7255 2.95182 17.0482C3.27455 17.38 3.66818 17.6355 4.10182 17.7955C4.45455 17.9327 4.98364 18.0955 5.95909 18.14C7.01364 18.1882 7.32909 18.1982 10 18.1982C12.6709 18.1982 12.9864 18.1882 14.0409 18.14C15.0164 18.0955 15.5455 17.9327 15.8982 17.7955C16.3645 17.6136 16.6982 17.3982 17.0482 17.0482C17.38 16.7255 17.6355 16.3318 17.7955 15.8982C17.9327 15.5455 18.0955 15.0164 18.14 14.0409C18.1882 12.9864 18.1982 12.67 18.1982 10C18.1982 7.33 18.1882 7.01364 18.14 5.95909C18.0955 4.98364 17.9327 4.45455 17.7955 4.10182C17.6136 3.63545 17.3982 3.30182 17.0482 2.95182C16.7254 2.62006 16.3325 2.36474 15.8982 2.20455C15.5455 2.06727 15.0164 1.90455 14.0409 1.86ZM8.72273 13.0827C9.43605 13.3797 10.2303 13.4197 10.9699 13.1961C11.7095 12.9725 12.3485 12.499 12.7778 11.8566C13.2071 11.2142 13.4 10.4426 13.3237 9.67373C13.2473 8.90485 12.9064 8.18634 12.3591 7.64091C12.0102 7.29225 11.5884 7.02528 11.1239 6.85922C10.6595 6.69316 10.164 6.63215 9.67318 6.68056C9.18233 6.72897 8.70832 6.88562 8.28528 7.13921C7.86223 7.3928 7.50068 7.73704 7.22664 8.14714C6.9526 8.55723 6.7729 9.02299 6.70047 9.51087C6.62804 9.99876 6.66468 10.4966 6.80776 10.9687C6.95084 11.4407 7.1968 11.8751 7.52793 12.2407C7.85905 12.6062 8.26711 12.8938 8.72273 13.0827ZM6.36545 6.36545C6.84275 5.88816 7.40938 5.50955 8.033 5.25124C8.65661 4.99293 9.325 4.85998 10 4.85998C10.675 4.85998 11.3434 4.99293 11.967 5.25124C12.5906 5.50955 13.1572 5.88816 13.6345 6.36545C14.1118 6.84275 14.4905 7.40938 14.7488 8.033C15.0071 8.65661 15.14 9.325 15.14 10C15.14 10.675 15.0071 11.3434 14.7488 11.967C14.4905 12.5906 14.1118 13.1572 13.6345 13.6345C12.6706 14.5985 11.3632 15.14 10 15.14C8.63678 15.14 7.3294 14.5985 6.36545 13.6345C5.40151 12.6706 4.85998 11.3632 4.85998 10C4.85998 8.63678 5.40151 7.3294 6.36545 6.36545ZM16.28 5.62545C16.3983 5.51388 16.493 5.37971 16.5585 5.23089C16.624 5.08206 16.6589 4.92161 16.6613 4.75903C16.6637 4.59645 16.6334 4.43504 16.5723 4.28437C16.5111 4.1337 16.4204 3.99683 16.3054 3.88185C16.1904 3.76688 16.0536 3.67614 15.9029 3.61502C15.7522 3.55389 15.5908 3.52361 15.4282 3.52598C15.2657 3.52835 15.1052 3.56332 14.9564 3.62881C14.8076 3.69431 14.6734 3.789 14.5618 3.90727C14.3448 4.1373 14.226 4.44284 14.2306 4.75903C14.2352 5.07522 14.3629 5.37716 14.5865 5.60077C14.8101 5.82437 15.1121 5.95203 15.4282 5.95663C15.7444 5.96124 16.05 5.84244 16.28 5.62545Z" fill="#C2C3C5"/>
        </g>
        <defs>
        <clipPath id="clip0_1_7867">
        <rect width="20" height="20" fill="white"/>
        </clipPath>
        </defs>
        </symbol>
                <symbol id="facebook-ico" viewBox="0 0 20 20" fill="none">
            <g clip-path="url(#clip0_1_7864)">
        <path d="M19.3309 9.85489C19.3309 15.0883 15.0883 19.3309 9.85489 19.3309C4.62145 19.3309 0.378906 15.0883 0.378906 9.85489C0.378906 4.62145 4.62145 0.378906 9.85489 0.378906C15.0883 0.378906 19.3309 4.62145 19.3309 9.85489Z" fill="#C2C3C5"/>
        <path d="M8.33873 12.6983V19.142C8.33873 19.2466 8.42358 19.3315 8.52825 19.3315H11.1815C11.2862 19.3315 11.371 19.2466 11.371 19.142V12.6983C11.371 12.5936 11.4559 12.5088 11.5606 12.5088H13.4558C13.5604 12.5088 13.6453 12.4239 13.6453 12.3193V10.045C13.6453 9.94036 13.5604 9.85551 13.4558 9.85551H11.5606C11.4559 9.85551 11.371 9.77079 11.371 9.66612V7.96031C11.371 7.20224 12.3186 6.8232 12.6977 6.8232H13.8348C13.9395 6.8232 14.0243 6.73835 14.0243 6.63368V4.35944C14.0243 4.25477 13.9395 4.16992 13.8348 4.16992H11.371C9.55166 4.16992 8.33873 6.06512 8.33873 7.20224V9.66599C8.33873 9.77066 8.25388 9.85551 8.14921 9.85551H6.25401C6.14935 9.85551 6.0645 9.94036 6.0645 10.045V12.3193C6.0645 12.4239 6.14935 12.5088 6.25401 12.5088H8.14921C8.25388 12.5088 8.33873 12.5936 8.33873 12.6983Z" fill="#141B22"/>
        </g>
        <defs>
        <clipPath id="clip0_1_7864">
        <rect width="20" height="20" fill="white"/>
        </clipPath>
        </defs>
        </symbol>
        <symbol id="in-ico" viewBox="0 0 20 20" fill="none">
        <g clip-path="url(#clip0_1_7861)">
        <path d="M18.5195 0H1.47656C0.660156 0 0 0.644531 0 1.44141V18.5547C0 19.3516 0.660156 20 1.47656 20H18.5195C19.3359 20 20 19.3516 20 18.5586V1.44141C20 0.644531 19.3359 0 18.5195 0ZM5.93359 17.043H2.96484V7.49609H5.93359V17.043ZM4.44922 6.19531C3.49609 6.19531 2.72656 5.42578 2.72656 4.47656C2.72656 3.52734 3.49609 2.75781 4.44922 2.75781C5.39844 2.75781 6.16797 3.52734 6.16797 4.47656C6.16797 5.42188 5.39844 6.19531 4.44922 6.19531ZM17.043 17.043H14.0781V12.4023C14.0781 11.2969 14.0586 9.87109 12.5352 9.87109C10.9922 9.87109 10.7578 11.0781 10.7578 12.3242V17.043H7.79688V7.49609H10.6406V8.80078H10.6797C11.0742 8.05078 12.043 7.25781 13.4844 7.25781C16.4883 7.25781 17.043 9.23438 17.043 11.8047V17.043Z" fill="#C2C3C5"/>
        </g>
        <defs>
        <clipPath id="clip0_1_7861">
        <rect width="20" height="20" fill="white"/>
        </clipPath>
        </defs>
        </symbol>
        <symbol id="telegr-ico" viewBox="0 0 20 20" fill="none">
            <g clip-path="url(#clip0_1_7869)">
        <path d="M10 20C15.5228 20 20 15.5228 20 10C20 4.47715 15.5228 0 10 0C4.47715 0 0 4.47715 0 10C0 15.5228 4.47715 20 10 20Z" fill="#C2C3C5"/>
        <path fill-rule="evenodd" clip-rule="evenodd" d="M4.52587 9.89397C7.44107 8.62386 9.38499 7.78653 10.3576 7.38197C13.1347 6.22688 13.7118 6.02623 14.0879 6.0196C14.1706 6.01814 14.3556 6.03865 14.4754 6.13587C14.5766 6.21796 14.6044 6.32885 14.6177 6.40668C14.6311 6.48451 14.6477 6.66181 14.6345 6.80034C14.484 8.38158 13.8328 12.2188 13.5015 13.9898C13.3613 14.7392 13.0853 14.9905 12.8181 15.0151C12.2374 15.0685 11.7964 14.6313 11.234 14.2626C10.3538 13.6856 9.85662 13.3265 9.0023 12.7635C8.01499 12.1129 8.65502 11.7553 9.21769 11.1709C9.36494 11.018 11.9236 8.69066 11.9731 8.47954C11.9793 8.45313 11.9851 8.35471 11.9266 8.30274C11.8681 8.25077 11.7818 8.26854 11.7195 8.28267C11.6313 8.30271 10.2253 9.23203 7.50149 11.0706C7.10239 11.3447 6.74091 11.4782 6.41703 11.4712C6.05998 11.4635 5.37315 11.2693 4.86257 11.1034C4.23632 10.8998 3.73859 10.7922 3.78193 10.4465C3.8045 10.2664 4.05248 10.0822 4.52587 9.89397Z" fill="#141B22"/>
        </g>
        <defs>
        <clipPath id="clip0_1_7869">
        <rect width="20" height="20" fill="white"/>
        </clipPath>
        </defs>
        </symbol>
                <symbol id="xtwitter" viewBox="0 0 24 20" fill="none">
        <path d="M20.4942 3.53429C21.4466 2.93853 22.1591 2.00045 22.4989 0.895189C21.604 1.4508 20.6249 1.84219 19.604 2.05244C18.1885 0.48557 15.9458 0.104266 14.1291 1.12159C12.3123 2.13891 11.3713 4.303 11.8318 6.40461C8.16633 6.21204 4.75125 4.40018 2.43643 1.4199C1.22837 3.60034 1.84571 6.3877 3.84723 7.78975C3.12346 7.7654 2.41574 7.56035 1.78308 7.19168C1.78308 7.21169 1.78308 7.2317 1.78308 7.25171C1.7835 9.52301 3.31326 11.4795 5.44075 11.9296C4.76942 12.1207 4.06523 12.1489 3.38192 12.0119C3.98024 13.9543 5.69099 15.2849 7.64088 15.3246C6.02593 16.651 4.03152 17.3703 1.97856 17.3668C1.61467 17.3673 1.25107 17.3454 0.889648 17.3012C2.97439 18.703 5.40078 19.4471 7.87885 19.4445C11.3264 19.4693 14.6397 18.047 17.0774 15.4959C19.5152 12.9447 20.8741 9.47754 20.8501 5.8699C20.8501 5.66313 20.8455 5.45747 20.8363 5.25293C21.7292 4.5777 22.4998 3.74122 23.1119 2.7828C22.2801 3.16862 21.3977 3.42192 20.4942 3.53429Z" fill="white" />
        </symbol>
        <symbol id="facebook"  viewBox="0 0 24 24" fill="none">
        <path d="M0.890625 12.0676C0.891918 17.5673 4.86663 22.25 10.2651 23.1119V15.2985H7.44618V12.0676H10.2684V9.60813C10.1422 8.44271 10.5379 7.28122 11.348 6.43867C12.1581 5.59611 13.2988 5.15982 14.4606 5.24812C15.2946 5.26167 16.1264 5.3364 16.9495 5.47171V8.22076H15.5451C15.0616 8.15704 14.5755 8.31771 14.2237 8.6575C13.8719 8.9973 13.6926 9.47944 13.7362 9.96811V12.0676H16.8151L16.3228 15.2996H13.7362V23.1119C19.5745 22.1835 23.6685 16.8187 23.0523 10.9039C22.4361 4.98917 17.3254 0.59513 11.4227 0.905081C5.51992 1.21503 0.891563 6.12047 0.890625 12.0676Z" fill="white" />
        </symbol>
        <symbol id="telegram"  viewBox="0 0 28 25" fill="none">
        <path d="M26.8301 0.662938C26.3752 0.281337 25.6608 0.226736 24.922 0.520137H24.9208C24.1439 0.828538 2.92852 9.83096 2.06486 10.1988C1.90778 10.2528 0.535872 10.7592 0.677187 11.8872C0.803339 12.9042 1.90596 13.3254 2.0406 13.374L7.43421 15.201C7.79204 16.3794 9.11118 20.727 9.40291 21.6558C9.58486 22.2348 9.88144 22.9956 10.4012 23.1522C10.8573 23.3262 11.311 23.1672 11.6045 22.9392L14.9021 19.9134L20.2253 24.0204L20.3521 24.0954C20.7135 24.2538 21.0599 24.333 21.3904 24.333C21.6457 24.333 21.8908 24.2856 22.1249 24.1908C22.9224 23.8668 23.2414 23.115 23.2748 23.0298L27.251 2.58354C27.4936 1.49154 27.1564 0.935938 26.8301 0.662938ZM12.191 15.9318L10.3715 20.7318L8.55199 14.7318L22.5015 4.53175L12.191 15.9318Z" fill="white" />
        </symbol>
        <symbol id="youtube"  viewBox="0 0 28 20" fill="none">
        <path d="M26.5893 3.39506C26.3428 2.03752 25.1682 1.0489 23.8052 0.740258C21.7654 0.308642 17.9904 0 13.9061 0C9.82414 0 5.98873 0.308642 3.94655 0.740258C2.58591 1.0489 1.40894 1.97483 1.16243 3.39506C0.913503 4.93827 0.666992 7.09877 0.666992 9.87654C0.666992 12.6543 0.913503 14.8148 1.22285 16.358C1.47178 17.7156 2.64633 18.7042 4.00697 19.0128C6.1724 19.4444 9.88456 19.7531 13.9689 19.7531C18.0533 19.7531 21.7654 19.4444 23.9308 19.0128C25.2915 18.7042 26.466 17.7783 26.715 16.358C26.9615 14.8148 27.2708 12.5916 27.3337 9.87654C27.208 7.09877 26.8986 4.93827 26.5893 3.39506ZM10.5661 14.1975V5.55556L18.1137 9.87654L10.5661 14.1975Z" fill="white" />
        </symbol>
        <symbol id="tiktok"  viewBox="0 0 28 28" fill="none">
        <path d="M24.1591 0.666992H3.8416C2.09112 0.666992 0.666992 2.09112 0.666992 3.8416V24.1591C0.666992 25.9095 2.09112 27.3337 3.8416 27.3337H24.1591C25.9095 27.3337 27.3337 25.9095 27.3337 24.1591V3.8416C27.3337 2.09112 25.9095 0.666992 24.1591 0.666992ZM21.6232 12.3006C21.4791 12.314 21.333 12.3229 21.1851 12.3229C19.5197 12.3229 18.0562 11.4664 17.2048 10.1718C17.2048 13.5679 17.2048 17.4321 17.2048 17.4968C17.2048 20.4867 14.7806 22.9108 11.7908 22.9108C8.80096 22.9108 6.37683 20.4867 6.37683 17.4968C6.37683 14.507 8.80096 12.0829 11.7908 12.0829C11.9038 12.0829 12.0143 12.093 12.1254 12.1V14.7679C12.0143 14.7546 11.9051 14.7343 11.7908 14.7343C10.2645 14.7343 9.02763 15.9711 9.02763 17.4975C9.02763 19.0238 10.2645 20.2606 11.7908 20.2606C13.3172 20.2606 14.6651 19.0581 14.6651 17.5318C14.6651 17.4714 14.6918 5.09112 14.6918 5.09112H17.2416C17.4816 7.37112 19.3222 9.17048 21.6232 9.33556V12.3006Z" fill="white" />
        </symbol>
        <symbol id="discord"  viewBox="0 0 28 20" fill="none">
        <path d="M23.638 2.18582C21.3305 0.328938 17.6801 0.0141738 17.5239 0.00285089C17.2816 -0.0175294 17.0506 0.11834 16.951 0.342525C16.9419 0.356112 16.8626 0.539536 16.7743 0.824862C18.3006 1.08301 20.1756 1.60158 21.8717 2.65457C22.1434 2.82214 22.2272 3.17993 22.0597 3.45167C21.9487 3.63057 21.7607 3.72794 21.566 3.72794C21.4618 3.72794 21.3554 3.6985 21.2603 3.63963C18.3436 1.8303 14.7023 1.73972 14.0003 1.73972C13.2983 1.73972 9.65476 1.8303 6.74036 3.63963C6.46862 3.80946 6.11083 3.72568 5.94326 3.45394C5.77342 3.17993 5.85721 2.82441 6.12895 2.65457C7.82505 1.60385 9.70005 1.08301 11.2263 0.827127C11.138 0.539536 11.0588 0.358377 11.052 0.342525C10.9501 0.11834 10.7213 -0.0220581 10.4768 0.00285089C10.3205 0.0141738 6.67016 0.328938 4.33094 2.21073C3.11038 3.34071 0.666992 9.94398 0.666992 15.6528C0.666992 15.7547 0.694166 15.852 0.743985 15.9404C2.42877 18.9023 7.02795 19.6768 8.07641 19.7107C8.08094 19.7107 8.08774 19.7107 8.09453 19.7107C8.28022 19.7107 8.45458 19.6224 8.56328 19.473L9.62306 18.0146C6.76301 17.2764 5.30241 16.0219 5.21862 15.9471C4.97859 15.7365 4.95594 15.3697 5.1688 15.1297C5.3794 14.8896 5.74625 14.867 5.98629 15.0776C6.02025 15.1093 8.71047 17.3919 14.0003 17.3919C19.2992 17.3919 21.9895 15.1002 22.0166 15.0776C22.2567 14.8692 22.6213 14.8896 22.8341 15.1319C23.0447 15.372 23.0221 15.7365 22.782 15.9471C22.6982 16.0219 21.2376 17.2764 18.3776 18.0146L19.4374 19.473C19.5461 19.6224 19.7204 19.7107 19.9061 19.7107C19.9129 19.7107 19.9197 19.7107 19.9242 19.7107C20.9727 19.6768 25.5719 18.9023 27.2567 15.9404C27.3065 15.852 27.3337 15.7547 27.3337 15.6528C27.3337 9.94398 24.8903 3.34071 23.638 2.18582ZM10.2322 13.3339C9.11129 13.3339 8.20322 12.2968 8.20322 11.0151C8.20322 9.73338 9.11129 8.69624 10.2322 8.69624C11.3531 8.69624 12.2612 9.73338 12.2612 11.0151C12.2612 12.2968 11.3531 13.3339 10.2322 13.3339ZM17.7684 13.3339C16.6475 13.3339 15.7395 12.2968 15.7395 11.0151C15.7395 9.73338 16.6475 8.69624 17.7684 8.69624C18.8894 8.69624 19.7974 9.73338 19.7974 11.0151C19.7974 12.2968 18.8894 13.3339 17.7684 13.3339Z" fill="white" />
        </symbol>
                <symbol id="tt"  viewBox="0 0 28 28" fill="none">
        <path d="M24.1591 0.666992H3.8416C2.09112 0.666992 0.666992 2.09112 0.666992 3.8416V24.1591C0.666992 25.9095 2.09112 27.3337 3.8416 27.3337H24.1591C25.9095 27.3337 27.3337 25.9095 27.3337 24.1591V3.8416C27.3337 2.09112 25.9095 0.666992 24.1591 0.666992ZM21.6232 12.3006C21.4791 12.314 21.333 12.3229 21.1851 12.3229C19.5197 12.3229 18.0562 11.4664 17.2048 10.1718C17.2048 13.5679 17.2048 17.4321 17.2048 17.4968C17.2048 20.4867 14.7806 22.9108 11.7908 22.9108C8.80096 22.9108 6.37683 20.4867 6.37683 17.4968C6.37683 14.507 8.80096 12.0829 11.7908 12.0829C11.9038 12.0829 12.0143 12.093 12.1254 12.1V14.7679C12.0143 14.7546 11.9051 14.7343 11.7908 14.7343C10.2645 14.7343 9.02763 15.9711 9.02763 17.4975C9.02763 19.0238 10.2645 20.2606 11.7908 20.2606C13.3172 20.2606 14.6651 19.0581 14.6651 17.5318C14.6651 17.4714 14.6918 5.09112 14.6918 5.09112H17.2416C17.4816 7.37112 19.3222 9.17048 21.6232 9.33556V12.3006Z" fill="white" />
        </symbol>
        <symbol id="bag"  viewBox="0 0 28 20" fill="none">
        <path fill-rule="evenodd" clip-rule="evenodd" d="M14.6509 4.47H14.8665C17.7002 4.47 20 6.72 20 9.48V15C20 17.76 17.7002 20 14.8665 20H5.13347C2.29979 20 0 17.76 0 15V9.48C0 6.72 2.29979 4.47 5.13347 4.47H5.34908C5.36961 3.27 5.85216 2.15 6.72485 1.31C7.6078 0.46 8.73717 0.03 10.0103 0C12.5565 0 14.6201 2 14.6509 4.47ZM7.80289 2.38C7.22794 2.94 6.90967 3.68 6.88913 4.47H13.1109C13.0801 2.83 11.7043 1.5 10.0103 1.5C9.21973 1.5 8.39837 1.81 7.80289 2.38ZM13.9014 8.32C14.3326 8.32 14.6714 7.98 14.6714 7.57V6.41C14.6714 6 14.3326 5.66 13.9014 5.66C13.4805 5.66 13.1314 6 13.1314 6.41V7.57C13.1314 7.98 13.4805 8.32 13.9014 8.32ZM6.77615 7.57C6.77615 7.98 6.43735 8.32 6.00613 8.32C5.58519 8.32 5.23611 7.98 5.23611 7.57V6.41C5.23611 6 5.58519 5.66 6.00613 5.66C6.43735 5.66 6.77615 6 6.77615 6.41V7.57Z" fill="#141B22"/>
        </symbol>
        <symbol id="logobinabox" viewBox="0 0 188 42" fill="none">
        <defs>
		<clipPath id="clip16_977">
			<rect id="Logo" rx="0.000000" width="35.000000" height="39.000000" transform="translate(0.500000 1.500000)" fill="white" fill-opacity="0"/>
		</clipPath>
		<linearGradient x1="34.564091" y1="27.443167" x2="20.268787" y2="17.644516" id="paint_linear_16_970_0" gradientUnits="userSpaceOnUse">
			<stop stop-color="#00FFA3"/>
			<stop offset="1.000000" stop-color="#00FFA3" stop-opacity="0.000000"/>
		</linearGradient>
		<linearGradient x1="32.214691" y1="13.886340" x2="19.261662" y2="5.497086" id="paint_linear_16_971_0" gradientUnits="userSpaceOnUse">
			<stop stop-color="#00FFA3"/>
			<stop offset="1.000000" stop-color="#00FFA3" stop-opacity="0.000000"/>
		</linearGradient>
	</defs>
	<rect id="Logo" rx="0.000000" width="35.000000" height="39.000000" transform="translate(0.500000 1.500000)" fill="#FFFFFF" fill-opacity="0"/>
	<g clip-path="url(#clip16_977)">
		<path id="Vector" d="M35.63 23.06L35.63 29C35.63 29.07 35.63 29.14 35.63 29.21C35.63 29.22 35.63 29.24 35.62 29.25C35.62 29.29 35.62 29.33 35.62 29.37C35.61 29.41 35.61 29.45 35.6 29.49C35.6 29.53 35.59 29.57 35.59 29.61C35.58 29.66 35.57 29.72 35.56 29.78C35.55 29.82 35.54 29.85 35.53 29.89C35.52 29.92 35.52 29.95 35.51 29.98C35.5 30.01 35.49 30.04 35.48 30.07C35.45 30.2 35.4 30.33 35.35 30.45C35.34 30.48 35.33 30.51 35.32 30.54C35.29 30.61 35.25 30.68 35.22 30.75C35.2 30.79 35.18 30.82 35.16 30.86L35.16 30.86L28.44 27.12L17.92 21.26L25.83 17.62L35.49 22.98L35.63 23.06Z" fill="url(#paint_linear_16_970_0)" fill-opacity="1.000000" fill-rule="nonzero"/>
		<path id="Vector" d="M35.51 11.98L33.47 13.56L31.65 16.41L14.41 6.81L20.96 2.21L24.92 4.5L24.92 4.5L32.18 8.69L33.68 9.55C34.61 10.09 35.26 10.97 35.51 11.98Z" fill="url(#paint_linear_16_971_0)" fill-opacity="1.000000" fill-rule="nonzero"/>
		<path id="Vector" d="M24.92 4.5L0 18.78L0 12.93C0 11.54 0.74 10.25 1.95 9.55L15.86 1.52C17.07 0.82 18.56 0.82 19.77 1.52L24.92 4.5Z" fill="#21E786" fill-opacity="1.000000" fill-rule="nonzero"/>
		<path id="Vector" d="M35.63 12.93L35.63 14.96L3.43 33.24L1.95 32.38C0.74 31.68 0 30.4 0 29L0 26.98L32.18 8.69L33.68 9.55C34.89 10.25 35.63 11.54 35.63 12.93Z" fill="#21E786" fill-opacity="1.000000" fill-rule="nonzero"/>
		<path id="Vector" d="M35.63 22.9L35.63 29C35.63 29.07 35.63 29.14 35.63 29.21C35.63 29.22 35.63 29.24 35.62 29.25C35.62 29.29 35.62 29.33 35.62 29.37C35.61 29.41 35.61 29.45 35.6 29.49C35.6 29.53 35.59 29.57 35.59 29.61C35.58 29.66 35.57 29.72 35.55 29.78C35.55 29.82 35.54 29.85 35.53 29.89C35.52 29.92 35.52 29.95 35.51 29.98C35.5 30.01 35.49 30.04 35.48 30.07C35.45 30.2 35.4 30.33 35.35 30.45C35.34 30.48 35.33 30.51 35.32 30.54C35.29 30.61 35.25 30.68 35.22 30.75C35.2 30.79 35.18 30.82 35.16 30.86C35.14 30.9 35.12 30.94 35.1 30.98C35.08 31.01 35.05 31.05 35.03 31.09C34.98 31.16 34.93 31.24 34.88 31.31C34.82 31.38 34.77 31.45 34.71 31.52C34.68 31.55 34.65 31.59 34.62 31.62C34.59 31.65 34.56 31.68 34.53 31.72C34.47 31.78 34.41 31.84 34.34 31.9C34.31 31.93 34.29 31.95 34.26 31.97C34.24 31.99 34.23 32 34.21 32.01C34.18 32.04 34.15 32.07 34.11 32.09C34.08 32.12 34.04 32.15 34.01 32.17C33.94 32.22 33.87 32.27 33.8 32.31C33.76 32.33 33.72 32.36 33.68 32.38L19.77 40.42C18.56 41.11 17.07 41.11 15.86 40.42L10.77 37.48L28.44 27.12L35.49 22.98L35.63 22.9Z" fill="#21E786" fill-opacity="1.000000" fill-rule="nonzero"/>
		<path id="Vector" d="M6.99 6.64L6.99 35.3L3.43 33.24L1.95 32.38C0.74 31.68 0 30.4 0 29L0 12.93C0 11.54 0.74 10.25 1.95 9.55L6.99 6.64Z" fill="#21E786" fill-opacity="1.000000" fill-rule="nonzero"/>
	</g>
	<path id="BINABOX" d="M146.06 15.42Q145.18 17.69 145.18 21.57Q145.18 24.47 145.66 26.47Q146.14 28.47 147.26 29.69Q148.38 30.91 150.3 31.46Q152.22 32 155.13 32Q158.04 32 159.96 31.46Q161.88 30.91 163 29.69Q164.13 28.47 164.59 26.47Q165.05 24.47 165.05 21.57Q165.05 18.68 164.59 16.68Q164.13 14.68 163 13.47Q161.88 12.25 159.96 11.71Q158.04 11.17 155.13 11.17Q151.26 11.17 149.09 12.16Q148.12 12.6 147.41 13.31Q146.54 14.17 146.06 15.42ZM70.1 29.76Q71.07 28.52 71.07 26.53Q71.07 24.82 70.53 23.77Q70.44 23.57 70.31 23.39Q69.77 22.61 68.76 22.16Q67.52 21.6 65.34 21.43L65.34 21.34Q68.28 21.08 69.35 19.85Q70.42 18.62 70.42 16.38Q70.42 14.75 69.82 13.66Q69.8 13.63 69.78 13.59Q69.17 12.56 67.72 12.01Q66.24 11.45 63.58 11.45L53.92 11.45L53.92 31.71L63.9 31.71Q67.9 31.71 69.48 30.39Q69.83 30.11 70.1 29.76ZM73.95 31.71L79.07 31.71L79.07 11.45L73.95 11.45L73.95 31.71ZM101.14 11.45L96.03 11.45L96.03 19.58Q96.03 20.82 96.18 22.09Q96.35 23.35 96.67 24.7L96.57 24.82Q96.09 23.87 95.71 23.17Q95.32 22.46 94.87 21.74Q94.42 21.02 93.75 20.03L87.99 11.45L82.91 11.45L82.91 31.71L88.03 31.71L88.03 23.9Q88.03 22.65 87.93 21.32Q87.84 20 87.39 18.46L87.48 18.33Q87.96 19.29 88.35 20Q88.73 20.7 89.17 21.4Q89.63 22.1 90.3 23.13L96.06 31.71L101.14 31.71L101.14 11.45ZM123.54 31.71L123.54 31.61L116.99 11.45L109.95 11.45L103.39 31.64L103.39 31.71L108.83 31.71Q109.37 30.07 110.01 27.84L116.93 27.84Q117.28 28.96 117.58 29.95Q117.88 30.94 118.11 31.71L123.54 31.71ZM141.97 29.76Q142.94 28.52 142.94 26.53Q142.94 24.82 142.41 23.77Q142.31 23.57 142.18 23.39Q141.65 22.61 140.63 22.16Q139.39 21.6 137.21 21.43L137.21 21.34Q140.16 21.08 141.23 19.85Q142.3 18.62 142.3 16.38Q142.3 14.75 141.69 13.66Q141.67 13.63 141.65 13.59Q141.04 12.56 139.59 12.01Q138.11 11.45 135.45 11.45L125.79 11.45L125.79 31.71L135.77 31.71Q139.77 31.71 141.35 30.39Q141.7 30.11 141.97 29.76ZM187.23 31.71L181.31 21.37L181.31 21.21L186.85 11.45L180.54 11.45L177.14 18.49L177.05 18.49L173.66 11.45L167.35 11.45L172.89 21.21L172.89 21.37L166.97 31.71L173.37 31.71L177.05 24.54L177.14 24.54L180.82 31.71L187.23 31.71ZM112.47 19.07Q113.08 16.73 113.4 15.1L113.53 15.1Q113.85 16.73 114.46 19.07Q115.07 21.4 115.77 23.84L111.19 23.84Q111.86 21.4 112.47 19.07ZM59.03 15.48L62.17 15.48Q63.74 15.48 64.44 15.9Q64.57 15.98 64.68 16.08Q65.14 16.53 65.14 17.46Q65.14 18.46 64.65 18.9Q64.55 18.99 64.44 19.05Q63.74 19.45 62.17 19.45L59.03 19.45L59.03 15.48ZM130.91 15.48L134.05 15.48Q135.61 15.48 136.31 15.9Q136.44 15.98 136.55 16.08Q137.02 16.53 137.02 17.46Q137.02 18.46 136.52 18.9Q136.43 18.99 136.31 19.05Q135.61 19.45 134.05 19.45L130.91 19.45L130.91 15.48ZM158.2 27Q157.18 27.52 155.13 27.52Q153.12 27.52 152.07 27Q151.78 26.86 151.53 26.65Q150.93 26.12 150.67 25.2Q150.3 23.9 150.3 21.57Q150.3 19.26 150.67 17.98Q150.92 17.07 151.52 16.55Q151.77 16.33 152.07 16.17Q153.12 15.64 155.13 15.64Q157.18 15.64 158.2 16.17Q158.49 16.32 158.73 16.53Q159.33 17.06 159.58 17.98Q159.93 19.26 159.93 21.57Q159.93 23.9 159.58 25.2Q159.32 26.13 158.72 26.66Q158.49 26.86 158.2 27ZM59.03 23.64L62.81 23.64Q64.38 23.64 65.08 24.04Q65.18 24.1 65.27 24.17Q65.78 24.62 65.78 25.66Q65.78 26.66 65.29 27.12Q65.19 27.21 65.08 27.28Q64.38 27.71 62.81 27.71L59.03 27.71L59.03 23.64ZM130.91 23.64L134.68 23.64Q136.25 23.64 136.95 24.04Q137.05 24.1 137.14 24.17Q137.66 24.62 137.66 25.66Q137.66 26.66 137.16 27.12Q137.06 27.21 136.95 27.28Q136.25 27.71 134.68 27.71L130.91 27.71L130.91 23.64Z" fill="#FFFFFF" fill-opacity="1.000000" fill-rule="evenodd"/>
        </symbol>
        <symbol id="phase-step-circle" viewBox="0 0 30 30" fill="none">
	<circle id="Ellipse 77" cx="15.000000" cy="15.000000" r="15.000000" fill="#21E786" fill-opacity="0.200000"/>
	<circle id="Ellipse 81" cx="15.000000" cy="15.000000" r="7.500000" fill="#21E786" fill-opacity="1.000000"/>
        </symbol>
        <symbol id="step-icon1" viewBox="0 0 99 72">
        <path d="M90.8677 4.80212H33.5377C30.6109 4.80212 28.2383 7.17475 28.2383 10.1015V44.2009C28.2383 47.1277 30.6109 49.5004 33.5377 49.5004H90.8677C93.7945 49.5004 96.1671 47.1277 96.1671 44.2009V10.1015C96.1671 7.17475 93.7945 4.80212 90.8677 4.80212Z" fill="url(#paint0_linear_1_8008)"/>
<g style="mix-blend-mode:multiply">
<path d="M96.1671 11.928H28.2383V17.4604H96.1671V11.928Z" fill="#FF9A17"/>
</g>
<path d="M71.8355 26.4708H14.5055C11.5787 26.4708 9.20605 28.8434 9.20605 31.7702V65.8696C9.20605 68.7964 11.5787 71.169 14.5055 71.169H71.8355C74.7622 71.169 77.1349 68.7964 77.1349 65.8696V31.7702C77.1349 28.8434 74.7622 26.4708 71.8355 26.4708Z" fill="url(#paint1_linear_1_8008)"/>
<path d="M26.01 55.2974H18.0794C17.1467 55.2974 16.3906 56.0535 16.3906 56.9862V64.9168C16.3906 65.8495 17.1467 66.6056 18.0794 66.6056H26.01C26.9428 66.6056 27.6989 65.8495 27.6989 64.9168V56.9862C27.6989 56.0535 26.9428 55.2974 26.01 55.2974Z" fill="white"/>
<path d="M58.229 59.6596H31.9438C31.559 59.6596 31.1901 59.5067 30.918 59.2347C30.646 58.9627 30.4932 58.5937 30.4932 58.209C30.4932 58.0187 30.5307 57.8304 30.6037 57.6547C30.6766 57.479 30.7836 57.3194 30.9184 57.1851C31.0531 57.0508 31.2131 56.9445 31.389 56.8722C31.565 56.7999 31.7535 56.763 31.9438 56.7637H58.229C58.6129 56.7637 58.981 56.9158 59.2529 57.1867C59.5248 57.4576 59.6782 57.8252 59.6796 58.209C59.6796 58.5937 59.5268 58.9627 59.2548 59.2347C58.9827 59.5067 58.6138 59.6596 58.229 59.6596Z" fill="white"/>
<path d="M50.1555 65.1444H31.9438C31.559 65.1444 31.1901 64.9916 30.918 64.7196C30.646 64.4475 30.4932 64.0786 30.4932 63.6938C30.4932 63.5036 30.5307 63.3152 30.6037 63.1395C30.6766 62.9638 30.7836 62.8043 30.9184 62.67C31.0531 62.5357 31.2131 62.4294 31.389 62.357C31.565 62.2847 31.7535 62.2478 31.9438 62.2485H50.1555C50.5388 62.2485 50.9065 62.4008 51.1775 62.6719C51.4485 62.9429 51.6008 63.3105 51.6008 63.6938C51.6008 64.0776 51.4487 64.4458 51.1778 64.7177C50.9069 64.9896 50.5393 65.143 50.1555 65.1444Z" fill="white"/>
<g style="mix-blend-mode:overlay">
<g style="mix-blend-mode:overlay" opacity="0.6">
<path style="mix-blend-mode:overlay" d="M9.37524 67.6751C10.2378 67.6751 10.937 58.8909 10.937 48.0551C10.937 37.2193 10.2378 28.4351 9.37524 28.4351C8.5127 28.4351 7.81348 37.2193 7.81348 48.0551C7.81348 58.8909 8.5127 67.6751 9.37524 67.6751Z" fill="url(#paint2_radial_1_8008)"/>
</g>
<path style="mix-blend-mode:overlay" d="M9.37511 39.9657C14.4714 39.9657 18.6028 39.5438 18.6028 39.0233C18.6028 38.5029 14.4714 38.081 9.37511 38.081C4.27882 38.081 0.147461 38.5029 0.147461 39.0233C0.147461 39.5438 4.27882 39.9657 9.37511 39.9657Z" fill="url(#paint3_radial_1_8008)"/>
<path style="mix-blend-mode:hard-light" d="M9.37529 38.711C10.3282 38.711 11.1012 38.8592 11.1012 39.0392C11.1012 39.2192 10.3282 39.3675 9.37529 39.3675C8.42235 39.3675 7.64941 39.2192 7.64941 39.0392C7.64941 38.8592 8.42235 38.711 9.37529 38.711Z" fill="url(#paint4_radial_1_8008)"/>
<path style="mix-blend-mode:overlay" d="M8.32227 39.0235C8.32227 34.0365 8.79344 29.9918 9.38109 29.9918C9.96874 29.9918 10.4399 34.0365 10.4399 39.0235C10.4399 44.0106 9.96874 48.0553 9.38109 48.0553C8.79344 48.0553 8.32227 44.0053 8.32227 39.0235Z" fill="url(#paint5_radial_1_8008)"/>
<path style="mix-blend-mode:hard-light" d="M9.00977 39.0233C9.00977 38.0704 9.17388 37.2974 9.37506 37.2974C9.57623 37.2974 9.73506 38.0704 9.73506 39.0233C9.73506 39.9762 9.57623 40.7492 9.37506 40.7492C9.17388 40.7492 9.00977 39.9762 9.00977 39.0233Z" fill="url(#paint6_radial_1_8008)"/>
<g style="mix-blend-mode:overlay" opacity="0.5">
<path style="mix-blend-mode:overlay" d="M9.37511 39.9657C14.4714 39.9657 18.6028 39.5438 18.6028 39.0233C18.6028 38.5029 14.4714 38.081 9.37511 38.081C4.27882 38.081 0.147461 38.5029 0.147461 39.0233C0.147461 39.5438 4.27882 39.9657 9.37511 39.9657Z" fill="url(#paint7_radial_1_8008)"/>
<path style="mix-blend-mode:hard-light" d="M9.37529 38.711C10.3282 38.711 11.1012 38.8592 11.1012 39.0392C11.1012 39.2192 10.3282 39.3675 9.37529 39.3675C8.42235 39.3675 7.64941 39.2192 7.64941 39.0392C7.64941 38.8592 8.42235 38.711 9.37529 38.711Z" fill="url(#paint8_radial_1_8008)"/>
<path style="mix-blend-mode:overlay" d="M8.32227 39.0233C8.32227 34.0363 8.79344 29.9916 9.38109 29.9916C9.96874 29.9916 10.4399 34.0363 10.4399 39.0233C10.4399 44.0104 9.96874 48.0551 9.38109 48.0551C8.79344 48.0551 8.32227 44.0051 8.32227 39.0233Z" fill="url(#paint9_radial_1_8008)"/>
<path style="mix-blend-mode:hard-light" d="M9.00977 39.0234C9.00977 38.0704 9.17388 37.2975 9.37506 37.2975C9.57623 37.2975 9.73506 38.0704 9.73506 39.0234C9.73506 39.9763 9.57623 40.7493 9.37506 40.7493C9.17388 40.7493 9.00977 39.9763 9.00977 39.0234Z" fill="url(#paint10_radial_1_8008)"/>
</g>
</g>
<defs>
<linearGradient id="paint0_linear_1_8008" x1="62.2" y1="4.80212" x2="62.2" y2="49.5004" gradientUnits="userSpaceOnUse">
<stop stop-color="#FF9A17"/>
<stop offset="0.17" stop-color="#FF921B"/>
<stop offset="0.44" stop-color="#FF7B27"/>
<stop offset="0.76" stop-color="#FF5739"/>
<stop offset="1" stop-color="#FF3849"/>
</linearGradient>
<linearGradient id="paint1_linear_1_8008" x1="43.1731" y1="26.4708" x2="43.1731" y2="71.1637" gradientUnits="userSpaceOnUse">
<stop stop-color="white" stop-opacity="0.9"/>
<stop offset="0.01" stop-color="white" stop-opacity="0.84"/>
<stop offset="0.03" stop-color="white" stop-opacity="0.73"/>
<stop offset="0.05" stop-color="white" stop-opacity="0.65"/>
<stop offset="0.08" stop-color="white" stop-opacity="0.58"/>
<stop offset="0.11" stop-color="white" stop-opacity="0.53"/>
<stop offset="0.16" stop-color="white" stop-opacity="0.51"/>
<stop offset="0.28" stop-color="white" stop-opacity="0.5"/>
<stop offset="0.46" stop-color="#FEFEFE" stop-opacity="0.48"/>
<stop offset="0.67" stop-color="#FAFAFA" stop-opacity="0.43"/>
<stop offset="0.89" stop-color="#F3F3F3" stop-opacity="0.35"/>
<stop offset="1" stop-color="#EFEFEF" stop-opacity="0.3"/>
</linearGradient>
<radialGradient id="paint2_radial_1_8008" cx="0" cy="0" r="1" gradientUnits="userSpaceOnUse" gradientTransform="translate(41.0353 46.4523) rotate(90) scale(19.6041 1.56833)">
<stop stop-color="white"/>
<stop offset="0.01" stop-color="white" stop-opacity="0.96"/>
<stop offset="0.05" stop-color="white" stop-opacity="0.78"/>
<stop offset="0.09" stop-color="white" stop-opacity="0.61"/>
<stop offset="0.14" stop-color="white" stop-opacity="0.47"/>
<stop offset="0.2" stop-color="white" stop-opacity="0.34"/>
<stop offset="0.25" stop-color="white" stop-opacity="0.23"/>
<stop offset="0.32" stop-color="white" stop-opacity="0.15"/>
<stop offset="0.4" stop-color="white" stop-opacity="0.08"/>
<stop offset="0.49" stop-color="white" stop-opacity="0.03"/>
<stop offset="0.63" stop-color="white" stop-opacity="0.01"/>
<stop offset="1" stop-color="white" stop-opacity="0"/>
</radialGradient>
<radialGradient id="paint3_radial_1_8008" cx="0" cy="0" r="1" gradientUnits="userSpaceOnUse" gradientTransform="translate(5.3169 -1.26963) rotate(-90) scale(0.946535 9.21626)">
<stop stop-color="white"/>
<stop offset="0.05" stop-color="white" stop-opacity="0.89"/>
<stop offset="0.15" stop-color="white" stop-opacity="0.69"/>
<stop offset="0.26" stop-color="white" stop-opacity="0.5"/>
<stop offset="0.37" stop-color="white" stop-opacity="0.35"/>
<stop offset="0.48" stop-color="white" stop-opacity="0.22"/>
<stop offset="0.6" stop-color="white" stop-opacity="0.12"/>
<stop offset="0.72" stop-color="white" stop-opacity="0.05"/>
<stop offset="0.85" stop-color="white" stop-opacity="0.01"/>
<stop offset="1" stop-color="white" stop-opacity="0"/>
</radialGradient>
<radialGradient id="paint4_radial_1_8008" cx="0" cy="0" r="1" gradientUnits="userSpaceOnUse" gradientTransform="translate(9.39647 -1.26781) rotate(-90) scale(0.327919 1.72588)">
<stop stop-color="white"/>
<stop offset="0.05" stop-color="white" stop-opacity="0.89"/>
<stop offset="0.15" stop-color="white" stop-opacity="0.69"/>
<stop offset="0.26" stop-color="white" stop-opacity="0.5"/>
<stop offset="0.37" stop-color="white" stop-opacity="0.35"/>
<stop offset="0.48" stop-color="white" stop-opacity="0.22"/>
<stop offset="0.6" stop-color="white" stop-opacity="0.12"/>
<stop offset="0.72" stop-color="white" stop-opacity="0.05"/>
<stop offset="0.85" stop-color="white" stop-opacity="0.01"/>
<stop offset="1" stop-color="white" stop-opacity="0"/>
</radialGradient>
<radialGradient id="paint5_radial_1_8008" cx="0" cy="0" r="1" gradientUnits="userSpaceOnUse" gradientTransform="translate(18.1215 43.346) rotate(180) scale(1.04617 9.01699)">
<stop stop-color="white"/>
<stop offset="0.05" stop-color="white" stop-opacity="0.89"/>
<stop offset="0.15" stop-color="white" stop-opacity="0.69"/>
<stop offset="0.26" stop-color="white" stop-opacity="0.5"/>
<stop offset="0.37" stop-color="white" stop-opacity="0.35"/>
<stop offset="0.48" stop-color="white" stop-opacity="0.22"/>
<stop offset="0.6" stop-color="white" stop-opacity="0.12"/>
<stop offset="0.72" stop-color="white" stop-opacity="0.05"/>
<stop offset="0.85" stop-color="white" stop-opacity="0.01"/>
<stop offset="1" stop-color="white" stop-opacity="0"/>
</radialGradient>
<radialGradient id="paint6_radial_1_8008" cx="0" cy="0" r="1" gradientUnits="userSpaceOnUse" gradientTransform="translate(18.123 39.0021) rotate(180) scale(0.362434 1.72588)">
<stop stop-color="white"/>
<stop offset="0.05" stop-color="white" stop-opacity="0.89"/>
<stop offset="0.15" stop-color="white" stop-opacity="0.69"/>
<stop offset="0.26" stop-color="white" stop-opacity="0.5"/>
<stop offset="0.37" stop-color="white" stop-opacity="0.35"/>
<stop offset="0.48" stop-color="white" stop-opacity="0.22"/>
<stop offset="0.6" stop-color="white" stop-opacity="0.12"/>
<stop offset="0.72" stop-color="white" stop-opacity="0.05"/>
<stop offset="0.85" stop-color="white" stop-opacity="0.01"/>
<stop offset="1" stop-color="white" stop-opacity="0"/>
</radialGradient>
<radialGradient id="paint7_radial_1_8008" cx="0" cy="0" r="1" gradientUnits="userSpaceOnUse" gradientTransform="translate(5.3169 -1.26963) rotate(-90) scale(0.946535 9.21626)">
<stop stop-color="white"/>
<stop offset="0.05" stop-color="white" stop-opacity="0.89"/>
<stop offset="0.15" stop-color="white" stop-opacity="0.69"/>
<stop offset="0.26" stop-color="white" stop-opacity="0.5"/>
<stop offset="0.37" stop-color="white" stop-opacity="0.35"/>
<stop offset="0.48" stop-color="white" stop-opacity="0.22"/>
<stop offset="0.6" stop-color="white" stop-opacity="0.12"/>
<stop offset="0.72" stop-color="white" stop-opacity="0.05"/>
<stop offset="0.85" stop-color="white" stop-opacity="0.01"/>
<stop offset="1" stop-color="white" stop-opacity="0"/>
</radialGradient>
<radialGradient id="paint8_radial_1_8008" cx="0" cy="0" r="1" gradientUnits="userSpaceOnUse" gradientTransform="translate(9.39647 -1.26781) rotate(-90) scale(0.327919 1.72588)">
<stop stop-color="white"/>
<stop offset="0.05" stop-color="white" stop-opacity="0.89"/>
<stop offset="0.15" stop-color="white" stop-opacity="0.69"/>
<stop offset="0.26" stop-color="white" stop-opacity="0.5"/>
<stop offset="0.37" stop-color="white" stop-opacity="0.35"/>
<stop offset="0.48" stop-color="white" stop-opacity="0.22"/>
<stop offset="0.6" stop-color="white" stop-opacity="0.12"/>
<stop offset="0.72" stop-color="white" stop-opacity="0.05"/>
<stop offset="0.85" stop-color="white" stop-opacity="0.01"/>
<stop offset="1" stop-color="white" stop-opacity="0"/>
</radialGradient>
<radialGradient id="paint9_radial_1_8008" cx="0" cy="0" r="1" gradientUnits="userSpaceOnUse" gradientTransform="translate(18.1215 43.3458) rotate(180) scale(1.04617 9.01699)">
<stop stop-color="white"/>
<stop offset="0.05" stop-color="white" stop-opacity="0.89"/>
<stop offset="0.15" stop-color="white" stop-opacity="0.69"/>
<stop offset="0.26" stop-color="white" stop-opacity="0.5"/>
<stop offset="0.37" stop-color="white" stop-opacity="0.35"/>
<stop offset="0.48" stop-color="white" stop-opacity="0.22"/>
<stop offset="0.6" stop-color="white" stop-opacity="0.12"/>
<stop offset="0.72" stop-color="white" stop-opacity="0.05"/>
<stop offset="0.85" stop-color="white" stop-opacity="0.01"/>
<stop offset="1" stop-color="white" stop-opacity="0"/>
</radialGradient>
<radialGradient id="paint10_radial_1_8008" cx="0" cy="0" r="1" gradientUnits="userSpaceOnUse" gradientTransform="translate(18.123 39.0022) rotate(180) scale(0.362434 1.72588)">
<stop stop-color="white"/>
<stop offset="0.05" stop-color="white" stop-opacity="0.89"/>
<stop offset="0.15" stop-color="white" stop-opacity="0.69"/>
<stop offset="0.26" stop-color="white" stop-opacity="0.5"/>
<stop offset="0.37" stop-color="white" stop-opacity="0.35"/>
<stop offset="0.48" stop-color="white" stop-opacity="0.22"/>
<stop offset="0.6" stop-color="white" stop-opacity="0.12"/>
<stop offset="0.72" stop-color="white" stop-opacity="0.05"/>
<stop offset="0.85" stop-color="white" stop-opacity="0.01"/>
<stop offset="1" stop-color="white" stop-opacity="0"/>
</radialGradient>
</defs>
        </symbol>

        <symbol id="step-icon2" viewBox="0 0 63 77">
        <path d="M62.5677 22.2458C62.5677 20.9811 62.0653 19.7683 61.1711 18.8741C60.2769 17.9799 59.0641 17.4775 57.7995 17.4775H22.3145V76.2744L25.1754 74.3671L28.0363 76.2744L30.8972 74.3671L33.7582 76.2744L36.6191 74.3671L39.48 76.2744L42.3409 74.3671L45.2019 76.2744L48.0628 74.3671L50.9237 76.2744L53.7847 74.3671L56.6456 76.2744L59.5065 74.3671L62.3674 76.2744L62.5677 22.2458Z" fill="url(#paint0_linear_1_8045)"/>
<path d="M8.93066 62.4799C8.93066 63.7445 9.43304 64.9573 10.3273 65.8515C11.2215 66.7457 12.4343 67.2481 13.6989 67.2481H49.1839V8.45605L46.323 10.3633L43.4621 8.45605L40.6011 10.3633L37.7402 8.45605L34.8793 10.3633L32.0184 8.45605L29.1574 10.3633L26.2965 8.45605L23.4356 10.3633L20.5746 8.45605L17.7137 10.3633L14.8528 8.45605L11.9919 10.3633L9.13094 8.45605L8.93066 62.4799Z" fill="url(#paint1_linear_1_8045)"/>
<path d="M43.982 21.5112H14.133C13.9522 21.5112 13.7787 21.4393 13.6509 21.3115C13.523 21.1836 13.4512 21.0102 13.4512 20.8293C13.4512 20.6485 13.523 20.4751 13.6509 20.3472C13.7787 20.2193 13.9522 20.1475 14.133 20.1475H43.982C44.1629 20.1475 44.3363 20.2193 44.4642 20.3472C44.5921 20.4751 44.6639 20.6485 44.6639 20.8293C44.6639 21.0102 44.5921 21.1836 44.4642 21.3115C44.3363 21.4393 44.1629 21.5112 43.982 21.5112Z" fill="white"/>
<path d="M43.982 27.8528H14.133C13.9522 27.8528 13.7788 27.781 13.6509 27.6531C13.523 27.5253 13.4512 27.3518 13.4512 27.171C13.4506 27.0811 13.4677 26.9919 13.5017 26.9086C13.5357 26.8253 13.5858 26.7496 13.6492 26.6858C13.7126 26.6219 13.788 26.5713 13.871 26.5367C13.954 26.5022 14.0431 26.4844 14.133 26.4844H43.982C44.072 26.4844 44.1611 26.5022 44.2441 26.5367C44.3271 26.5713 44.4025 26.6219 44.4659 26.6858C44.5293 26.7496 44.5794 26.8253 44.6134 26.9086C44.6474 26.9919 44.6645 27.0811 44.6639 27.171C44.6639 27.3518 44.5921 27.5253 44.4642 27.6531C44.3363 27.781 44.1629 27.8528 43.982 27.8528Z" fill="white"/>
<path d="M32.8959 40.5317H14.133C14.0435 40.5317 13.9548 40.514 13.8721 40.4798C13.7894 40.4455 13.7142 40.3953 13.6509 40.332C13.5876 40.2687 13.5373 40.1935 13.5031 40.1108C13.4688 40.028 13.4512 39.9394 13.4512 39.8498C13.4512 39.669 13.523 39.4955 13.6509 39.3677C13.7787 39.2398 13.9522 39.168 14.133 39.168H32.8959C33.0768 39.168 33.2502 39.2398 33.3781 39.3677C33.506 39.4955 33.5778 39.669 33.5778 39.8498C33.5778 39.9394 33.5602 40.028 33.5259 40.1108C33.4916 40.1935 33.4414 40.2687 33.3781 40.332C33.3148 40.3953 33.2396 40.4455 33.1569 40.4798C33.0741 40.514 32.9855 40.5317 32.8959 40.5317Z" fill="white"/>
<path d="M32.8959 46.8735H14.133C13.9522 46.8735 13.7787 46.8016 13.6509 46.6738C13.523 46.5459 13.4512 46.3725 13.4512 46.1916C13.4512 46.0108 13.523 45.8373 13.6509 45.7095C13.7787 45.5816 13.9522 45.5098 14.133 45.5098H32.8959C33.0768 45.5098 33.2502 45.5816 33.3781 45.7095C33.506 45.8373 33.5778 46.0108 33.5778 46.1916C33.5778 46.3725 33.506 46.5459 33.3781 46.6738C33.2502 46.8016 33.0768 46.8735 32.8959 46.8735Z" fill="white"/>
<path d="M32.896 53.2152H14.133C13.9522 53.2152 13.7788 53.1433 13.6509 53.0154C13.523 52.8876 13.4512 52.7141 13.4512 52.5333C13.4506 52.4434 13.4677 52.3542 13.5017 52.2709C13.5357 52.1876 13.5858 52.1119 13.6492 52.0481C13.7126 51.9842 13.788 51.9336 13.871 51.899C13.954 51.8645 14.0431 51.8467 14.133 51.8467H32.896C32.9859 51.8467 33.075 51.8645 33.158 51.899C33.241 51.9336 33.3164 51.9842 33.3798 52.0481C33.4432 52.1119 33.4933 52.1876 33.5273 52.2709C33.5613 52.3542 33.5784 52.4434 33.5778 52.5333C33.5778 52.7141 33.506 52.8876 33.3781 53.0154C33.2502 53.1433 33.0768 53.2152 32.896 53.2152Z" fill="white"/>
<path d="M32.8959 59.5522H14.133C13.9522 59.5522 13.7787 59.4803 13.6509 59.3525C13.523 59.2246 13.4512 59.0512 13.4512 58.8703C13.4512 58.6895 13.523 58.5161 13.6509 58.3882C13.7787 58.2603 13.9522 58.1885 14.133 58.1885H32.8959C33.0768 58.1885 33.2502 58.2603 33.3781 58.3882C33.506 58.5161 33.5778 58.6895 33.5778 58.8703C33.5778 59.0512 33.506 59.2246 33.3781 59.3525C33.2502 59.4803 33.0768 59.5522 32.8959 59.5522Z" fill="white"/>
<path d="M43.982 40.5317H36.7629C36.6734 40.5317 36.5847 40.514 36.502 40.4798C36.4193 40.4455 36.3441 40.3953 36.2808 40.332C36.2175 40.2687 36.1672 40.1935 36.133 40.1108C36.0987 40.028 36.0811 39.9394 36.0811 39.8498C36.0811 39.669 36.1529 39.4955 36.2808 39.3677C36.4086 39.2398 36.5821 39.168 36.7629 39.168H43.982C44.1628 39.168 44.3363 39.2398 44.4641 39.3677C44.592 39.4955 44.6638 39.669 44.6638 39.8498C44.6638 39.9394 44.6462 40.028 44.6119 40.1108C44.5777 40.1935 44.5274 40.2687 44.4641 40.332C44.4008 40.3953 44.3256 40.4455 44.2429 40.4798C44.1602 40.514 44.0715 40.5317 43.982 40.5317Z" fill="white"/>
<path d="M43.982 46.8735H36.7629C36.5821 46.8735 36.4086 46.8016 36.2808 46.6738C36.1529 46.5459 36.0811 46.3725 36.0811 46.1916C36.0811 46.0108 36.1529 45.8373 36.2808 45.7095C36.4086 45.5816 36.5821 45.5098 36.7629 45.5098H43.982C44.1628 45.5098 44.3363 45.5816 44.4641 45.7095C44.592 45.8373 44.6638 46.0108 44.6638 46.1916C44.6638 46.3725 44.592 46.5459 44.4641 46.6738C44.3363 46.8016 44.1628 46.8735 43.982 46.8735Z" fill="white"/>
<path d="M43.982 53.2152H36.7629C36.5821 53.2152 36.4087 53.1433 36.2808 53.0154C36.1529 52.8876 36.0811 52.7141 36.0811 52.5333C36.0804 52.4434 36.0976 52.3542 36.1316 52.2709C36.1656 52.1876 36.2157 52.1119 36.2791 52.0481C36.3425 51.9842 36.4179 51.9336 36.5009 51.899C36.5839 51.8645 36.673 51.8467 36.7629 51.8467H43.982C44.0719 51.8467 44.161 51.8645 44.244 51.899C44.3271 51.9336 44.4025 51.9842 44.4658 52.0481C44.5292 52.1119 44.5793 52.1876 44.6133 52.2709C44.6473 52.3542 44.6645 52.4434 44.6639 52.5333C44.6639 52.7141 44.592 52.8876 44.4641 53.0154C44.3363 53.1433 44.1628 53.2152 43.982 53.2152Z" fill="white"/>
<path d="M43.982 59.5522H36.7629C36.5821 59.5522 36.4086 59.4803 36.2808 59.3525C36.1529 59.2246 36.0811 59.0512 36.0811 58.8703C36.0811 58.6895 36.1529 58.5161 36.2808 58.3882C36.4086 58.2603 36.5821 58.1885 36.7629 58.1885H43.982C44.1628 58.1885 44.3363 58.2603 44.4641 58.3882C44.592 58.5161 44.6638 58.6895 44.6638 58.8703C44.6638 59.0512 44.592 59.2246 44.4641 59.3525C44.3363 59.4803 44.1628 59.5522 43.982 59.5522Z" fill="white"/>
<g style="mix-blend-mode:overlay">
<g style="mix-blend-mode:overlay" opacity="0.6">
<path style="mix-blend-mode:overlay" d="M8.78749 39.8976C8.01027 39.8976 7.38086 31.9824 7.38086 22.2266C7.38086 12.4708 8.01027 4.55084 8.78749 4.55084C9.56471 4.55084 10.1941 12.4661 10.1941 22.2266C10.1941 31.9871 9.56471 39.8976 8.78749 39.8976Z" fill="url(#paint2_radial_1_8045)"/>
</g>
<path style="mix-blend-mode:overlay" d="M8.78755 14.9408C13.3776 14.9408 17.0985 14.5608 17.0985 14.092C17.0985 13.6233 13.3776 13.2433 8.78755 13.2433C4.19752 13.2433 0.476562 13.6233 0.476562 14.092C0.476562 14.5608 4.19752 14.9408 8.78755 14.9408Z" fill="url(#paint3_radial_1_8045)"/>
<path style="mix-blend-mode:hard-light" d="M8.78784 13.7964C9.64612 13.7964 10.3423 13.93 10.3423 14.0921C10.3423 14.2542 9.64612 14.3829 8.78784 14.3829C7.92956 14.3829 7.2334 14.2542 7.2334 14.0921C7.2334 13.93 7.92956 13.7964 8.78784 13.7964Z" fill="url(#paint4_radial_1_8045)"/>
<path style="mix-blend-mode:overlay" d="M7.8623 14.0921C7.8623 9.60049 8.28668 5.95758 8.81595 5.95758C9.34522 5.95758 9.76959 9.60049 9.76959 14.0921C9.76959 18.5838 9.34999 22.2267 8.81595 22.2267C8.28191 22.2267 7.8623 18.5838 7.8623 14.0921Z" fill="url(#paint5_radial_1_8045)"/>
<path style="mix-blend-mode:hard-light" d="M8.45898 14.0921C8.45898 13.2338 8.6068 12.5377 8.78799 12.5377C8.96918 12.5377 9.117 13.2338 9.117 14.0921C9.117 14.9504 8.96918 15.6465 8.78799 15.6465C8.6068 15.6465 8.45898 14.9504 8.45898 14.0921Z" fill="url(#paint6_radial_1_8045)"/>
<g style="mix-blend-mode:overlay" opacity="0.5">
<path style="mix-blend-mode:overlay" d="M8.78755 14.9408C13.3776 14.9408 17.0985 14.5608 17.0985 14.092C17.0985 13.6233 13.3776 13.2433 8.78755 13.2433C4.19752 13.2433 0.476562 13.6233 0.476562 14.092C0.476562 14.5608 4.19752 14.9408 8.78755 14.9408Z" fill="url(#paint7_radial_1_8045)"/>
<path style="mix-blend-mode:hard-light" d="M8.78784 13.7963C9.64612 13.7963 10.3423 13.9298 10.3423 14.092C10.3423 14.2541 9.64612 14.3828 8.78784 14.3828C7.92956 14.3828 7.2334 14.2541 7.2334 14.092C7.2334 13.9298 7.92956 13.7963 8.78784 13.7963Z" fill="url(#paint8_radial_1_8045)"/>
<path style="mix-blend-mode:overlay" d="M7.8623 14.092C7.8623 9.60037 8.28668 5.95746 8.81595 5.95746C9.34522 5.95746 9.76959 9.60037 9.76959 14.092C9.76959 18.5837 9.34999 22.2266 8.81595 22.2266C8.28191 22.2266 7.8623 18.5837 7.8623 14.092Z" fill="url(#paint9_radial_1_8045)"/>
<path style="mix-blend-mode:hard-light" d="M8.45898 14.092C8.45898 13.2337 8.6068 12.5375 8.78799 12.5375C8.96918 12.5375 9.117 13.2337 9.117 14.092C9.117 14.9502 8.96918 15.6464 8.78799 15.6464C8.6068 15.6464 8.45898 14.9502 8.45898 14.092Z" fill="url(#paint10_radial_1_8045)"/>
</g>
</g>
<defs>
<linearGradient id="paint0_linear_1_8045" x1="42.4411" y1="11.8749" x2="42.4411" y2="70.6717" gradientUnits="userSpaceOnUse">
<stop stop-color="#E3F1FF"/>
<stop offset="0.2" stop-color="#A2D7FA"/>
<stop offset="0.41" stop-color="#69C0F5"/>
<stop offset="0.6" stop-color="#3BAEF1"/>
<stop offset="0.77" stop-color="#1BA1EE"/>
<stop offset="0.91" stop-color="#0799ED"/>
<stop offset="1" stop-color="#0096EC"/>
</linearGradient>
<linearGradient id="paint1_linear_1_8045" x1="29.0573" y1="7.23062" x2="29.0573" y2="66.0274" gradientUnits="userSpaceOnUse">
<stop stop-color="white" stop-opacity="0.9"/>
<stop offset="0.01" stop-color="white" stop-opacity="0.84"/>
<stop offset="0.03" stop-color="white" stop-opacity="0.73"/>
<stop offset="0.05" stop-color="white" stop-opacity="0.65"/>
<stop offset="0.08" stop-color="white" stop-opacity="0.58"/>
<stop offset="0.11" stop-color="white" stop-opacity="0.53"/>
<stop offset="0.16" stop-color="white" stop-opacity="0.51"/>
<stop offset="0.28" stop-color="white" stop-opacity="0.5"/>
<stop offset="0.46" stop-color="#FEFEFE" stop-opacity="0.48"/>
<stop offset="0.67" stop-color="#FAFAFA" stop-opacity="0.43"/>
<stop offset="0.89" stop-color="#F3F3F3" stop-opacity="0.35"/>
<stop offset="1" stop-color="#EFEFEF" stop-opacity="0.3"/>
</linearGradient>
<radialGradient id="paint2_radial_1_8045" cx="0" cy="0" r="1" gradientUnits="userSpaceOnUse" gradientTransform="translate(37.9543 20.7663) rotate(90) scale(17.6567 1.41254)">
<stop stop-color="white"/>
<stop offset="0.01" stop-color="white" stop-opacity="0.96"/>
<stop offset="0.05" stop-color="white" stop-opacity="0.78"/>
<stop offset="0.09" stop-color="white" stop-opacity="0.61"/>
<stop offset="0.14" stop-color="white" stop-opacity="0.47"/>
<stop offset="0.2" stop-color="white" stop-opacity="0.34"/>
<stop offset="0.25" stop-color="white" stop-opacity="0.23"/>
<stop offset="0.32" stop-color="white" stop-opacity="0.15"/>
<stop offset="0.4" stop-color="white" stop-opacity="0.08"/>
<stop offset="0.49" stop-color="white" stop-opacity="0.03"/>
<stop offset="0.63" stop-color="white" stop-opacity="0.01"/>
<stop offset="1" stop-color="white" stop-opacity="0"/>
</radialGradient>
<radialGradient id="paint3_radial_1_8045" cx="0" cy="0" r="1" gradientUnits="userSpaceOnUse" gradientTransform="translate(4.97108 -21.6154) rotate(-90) scale(0.852508 8.30074)">
<stop stop-color="white"/>
<stop offset="0.05" stop-color="white" stop-opacity="0.89"/>
<stop offset="0.15" stop-color="white" stop-opacity="0.69"/>
<stop offset="0.26" stop-color="white" stop-opacity="0.5"/>
<stop offset="0.37" stop-color="white" stop-opacity="0.35"/>
<stop offset="0.48" stop-color="white" stop-opacity="0.22"/>
<stop offset="0.6" stop-color="white" stop-opacity="0.12"/>
<stop offset="0.72" stop-color="white" stop-opacity="0.05"/>
<stop offset="0.85" stop-color="white" stop-opacity="0.01"/>
<stop offset="1" stop-color="white" stop-opacity="0"/>
</radialGradient>
<radialGradient id="paint4_radial_1_8045" cx="0" cy="0" r="1" gradientUnits="userSpaceOnUse" gradientTransform="translate(8.81168 -21.6138) rotate(-90) scale(0.295346 1.55444)">
<stop stop-color="white"/>
<stop offset="0.05" stop-color="white" stop-opacity="0.89"/>
<stop offset="0.15" stop-color="white" stop-opacity="0.69"/>
<stop offset="0.26" stop-color="white" stop-opacity="0.5"/>
<stop offset="0.37" stop-color="white" stop-opacity="0.35"/>
<stop offset="0.48" stop-color="white" stop-opacity="0.22"/>
<stop offset="0.6" stop-color="white" stop-opacity="0.12"/>
<stop offset="0.72" stop-color="white" stop-opacity="0.05"/>
<stop offset="0.85" stop-color="white" stop-opacity="0.01"/>
<stop offset="1" stop-color="white" stop-opacity="0"/>
</radialGradient>
<radialGradient id="paint5_radial_1_8045" cx="0" cy="0" r="1" gradientUnits="userSpaceOnUse" gradientTransform="translate(16.1473 17.8501) rotate(180) scale(0.942246 8.12127)">
<stop stop-color="white"/>
<stop offset="0.05" stop-color="white" stop-opacity="0.89"/>
<stop offset="0.15" stop-color="white" stop-opacity="0.69"/>
<stop offset="0.26" stop-color="white" stop-opacity="0.5"/>
<stop offset="0.37" stop-color="white" stop-opacity="0.35"/>
<stop offset="0.48" stop-color="white" stop-opacity="0.22"/>
<stop offset="0.6" stop-color="white" stop-opacity="0.12"/>
<stop offset="0.72" stop-color="white" stop-opacity="0.05"/>
<stop offset="0.85" stop-color="white" stop-opacity="0.01"/>
<stop offset="1" stop-color="white" stop-opacity="0"/>
</radialGradient>
<radialGradient id="paint6_radial_1_8045" cx="0" cy="0" r="1" gradientUnits="userSpaceOnUse" gradientTransform="translate(16.1499 14.073) rotate(180) scale(0.326433 1.55443)">
<stop stop-color="white"/>
<stop offset="0.05" stop-color="white" stop-opacity="0.89"/>
<stop offset="0.15" stop-color="white" stop-opacity="0.69"/>
<stop offset="0.26" stop-color="white" stop-opacity="0.5"/>
<stop offset="0.37" stop-color="white" stop-opacity="0.35"/>
<stop offset="0.48" stop-color="white" stop-opacity="0.22"/>
<stop offset="0.6" stop-color="white" stop-opacity="0.12"/>
<stop offset="0.72" stop-color="white" stop-opacity="0.05"/>
<stop offset="0.85" stop-color="white" stop-opacity="0.01"/>
<stop offset="1" stop-color="white" stop-opacity="0"/>
</radialGradient>
<radialGradient id="paint7_radial_1_8045" cx="0" cy="0" r="1" gradientUnits="userSpaceOnUse" gradientTransform="translate(4.97108 -21.6154) rotate(-90) scale(0.852508 8.30074)">
<stop stop-color="white"/>
<stop offset="0.05" stop-color="white" stop-opacity="0.89"/>
<stop offset="0.15" stop-color="white" stop-opacity="0.69"/>
<stop offset="0.26" stop-color="white" stop-opacity="0.5"/>
<stop offset="0.37" stop-color="white" stop-opacity="0.35"/>
<stop offset="0.48" stop-color="white" stop-opacity="0.22"/>
<stop offset="0.6" stop-color="white" stop-opacity="0.12"/>
<stop offset="0.72" stop-color="white" stop-opacity="0.05"/>
<stop offset="0.85" stop-color="white" stop-opacity="0.01"/>
<stop offset="1" stop-color="white" stop-opacity="0"/>
</radialGradient>
<radialGradient id="paint8_radial_1_8045" cx="0" cy="0" r="1" gradientUnits="userSpaceOnUse" gradientTransform="translate(8.81168 -21.614) rotate(-90) scale(0.295346 1.55444)">
<stop stop-color="white"/>
<stop offset="0.05" stop-color="white" stop-opacity="0.89"/>
<stop offset="0.15" stop-color="white" stop-opacity="0.69"/>
<stop offset="0.26" stop-color="white" stop-opacity="0.5"/>
<stop offset="0.37" stop-color="white" stop-opacity="0.35"/>
<stop offset="0.48" stop-color="white" stop-opacity="0.22"/>
<stop offset="0.6" stop-color="white" stop-opacity="0.12"/>
<stop offset="0.72" stop-color="white" stop-opacity="0.05"/>
<stop offset="0.85" stop-color="white" stop-opacity="0.01"/>
<stop offset="1" stop-color="white" stop-opacity="0"/>
</radialGradient>
<radialGradient id="paint9_radial_1_8045" cx="0" cy="0" r="1" gradientUnits="userSpaceOnUse" gradientTransform="translate(16.1473 17.85) rotate(180) scale(0.942246 8.12127)">
<stop stop-color="white"/>
<stop offset="0.05" stop-color="white" stop-opacity="0.89"/>
<stop offset="0.15" stop-color="white" stop-opacity="0.69"/>
<stop offset="0.26" stop-color="white" stop-opacity="0.5"/>
<stop offset="0.37" stop-color="white" stop-opacity="0.35"/>
<stop offset="0.48" stop-color="white" stop-opacity="0.22"/>
<stop offset="0.6" stop-color="white" stop-opacity="0.12"/>
<stop offset="0.72" stop-color="white" stop-opacity="0.05"/>
<stop offset="0.85" stop-color="white" stop-opacity="0.01"/>
<stop offset="1" stop-color="white" stop-opacity="0"/>
</radialGradient>
<radialGradient id="paint10_radial_1_8045" cx="0" cy="0" r="1" gradientUnits="userSpaceOnUse" gradientTransform="translate(16.1499 14.0729) rotate(180) scale(0.326433 1.55443)">
<stop stop-color="white"/>
<stop offset="0.05" stop-color="white" stop-opacity="0.89"/>
<stop offset="0.15" stop-color="white" stop-opacity="0.69"/>
<stop offset="0.26" stop-color="white" stop-opacity="0.5"/>
<stop offset="0.37" stop-color="white" stop-opacity="0.35"/>
<stop offset="0.48" stop-color="white" stop-opacity="0.22"/>
<stop offset="0.6" stop-color="white" stop-opacity="0.12"/>
<stop offset="0.72" stop-color="white" stop-opacity="0.05"/>
<stop offset="0.85" stop-color="white" stop-opacity="0.01"/>
<stop offset="1" stop-color="white" stop-opacity="0"/>
</radialGradient>
</defs>
        </symbol>
<symbol id="step-icon3" viewBox="0 0 82 70">
<path d="M58.7897 15.9887C59.8419 9.72803 55.6196 3.79986 49.359 2.7477C43.0983 1.69553 37.1702 5.91782 36.118 12.1784C35.0658 18.4391 39.2881 24.3672 45.5487 25.4194C51.8094 26.4716 57.7375 22.2493 58.7897 15.9887Z" fill="url(#paint0_linear_1_8080)"/>
<g style="mix-blend-mode:multiply">
<path d="M50.6167 22.3358C55.1694 20.5937 57.4477 15.4907 55.7056 10.938C53.9635 6.38536 48.8605 4.10697 44.3078 5.84911C39.7551 7.59125 37.4767 12.6942 39.2189 17.2469C40.961 21.7996 46.064 24.078 50.6167 22.3358Z" fill="#FFEBB5"/>
</g>
<path d="M45.4587 54.6779C51.8071 54.6779 56.9535 49.5315 56.9535 43.1831C56.9535 36.8346 51.8071 31.6882 45.4587 31.6882C39.1103 31.6882 33.9639 36.8346 33.9639 43.1831C33.9639 49.5315 39.1103 54.6779 45.4587 54.6779Z" fill="url(#paint1_linear_1_8080)"/>
<g style="mix-blend-mode:multiply">
<path d="M45.4591 52.0092C50.3337 52.0092 54.2854 48.0575 54.2854 43.1829C54.2854 38.3082 50.3337 34.3566 45.4591 34.3566C40.5845 34.3566 36.6328 38.3082 36.6328 43.1829C36.6328 48.0575 40.5845 52.0092 45.4591 52.0092Z" fill="#FFEBB5"/>
</g>
<path d="M81.2975 40.0713C81.2481 39.9483 81.1523 39.8497 81.0307 39.7969C80.9091 39.7441 80.7715 39.7414 80.648 39.7894C79.3842 40.2929 78.3067 40.2425 77.5011 39.6887C77.7566 39.3757 77.9809 39.0384 78.1708 38.6817C79.1224 36.849 78.6742 35.8168 78.3419 35.3586C78.1453 35.0981 77.8782 34.8993 77.5721 34.786C77.266 34.6727 76.9338 34.6495 76.615 34.7192C76.2784 34.7956 75.9713 34.968 75.7309 35.2156C75.4904 35.4632 75.327 35.7752 75.2605 36.1138C75.1445 36.7351 75.1566 37.3735 75.296 37.9899C75.4354 38.6064 75.6992 39.1878 76.0712 39.6987C75.3484 40.2373 74.4507 40.4869 73.5537 40.3986C73.3221 27.2724 59.6119 16.689 42.7296 16.689C39.6684 16.689 33.9235 17.6959 33.9235 17.6959C33.9235 17.6959 27.378 10.7074 24.7296 12.4344C20.7873 15.0123 20.8275 23.8235 20.8275 23.8235C13.9095 28.355 12.3638 36.5569 12.3638 36.5569L7.68125 37.6445L4.94727 42.4831C9.2307 50.4874 15.9982 56.8839 24.2312 60.7097L20.8275 69.2087H29.5682L30.4846 63.1013C33.8213 64.1419 37.2869 64.7113 40.7811 64.793L40.7257 64.7326C41.3903 64.7678 42.055 64.793 42.7397 64.793C46.2376 64.7994 49.7201 64.3302 53.0916 63.3983L53.9929 69.1835H62.7386L59.4407 60.9463C67.7383 56.7773 73.307 49.5924 73.594 41.3804H73.9061C74.954 41.3972 75.9754 41.0502 76.7962 40.3986C77.6018 41.0229 78.9562 41.5264 81.0256 40.7158C81.1456 40.6646 81.241 40.5687 81.2917 40.4485C81.3424 40.3283 81.3445 40.193 81.2975 40.0713ZM76.766 38.9586C76.2477 38.1856 76.0509 37.241 76.2172 36.3253C76.2402 36.1734 76.3081 36.0318 76.4121 35.9187C76.5162 35.8057 76.6517 35.7263 76.8012 35.6909H76.9523C77.0618 35.6905 77.1699 35.7158 77.2678 35.7648C77.3657 35.8138 77.4508 35.885 77.5162 35.9729C77.8536 36.4109 77.7529 37.2518 77.2494 38.2134C77.119 38.4749 76.9656 38.7243 76.7912 38.9586H76.766Z" fill="url(#paint2_linear_1_8080)"/>
<path d="M18.0942 36.4612C18.7977 36.4612 19.368 35.6542 19.368 34.6587C19.368 33.6632 18.7977 32.8562 18.0942 32.8562C17.3906 32.8562 16.8203 33.6632 16.8203 34.6587C16.8203 35.6542 17.3906 36.4612 18.0942 36.4612Z" fill="white"/>
<path d="M57.9408 25.2384C57.8236 25.2387 57.708 25.2111 57.6035 25.1579C47.0301 19.8712 36.3056 23.2043 36.1999 23.2396C36.1053 23.27 36.0057 23.2815 35.9067 23.2734C35.8077 23.2653 35.7113 23.2378 35.6229 23.1924C35.5345 23.1471 35.456 23.0848 35.3917 23.0091C35.3274 22.9334 35.2787 22.8457 35.2482 22.7512C35.2178 22.6566 35.2063 22.557 35.2144 22.458C35.2225 22.359 35.25 22.2626 35.2954 22.1742C35.3407 22.0858 35.403 22.0073 35.4787 21.943C35.5545 21.8787 35.6421 21.83 35.7366 21.7996C36.1999 21.6535 47.1459 18.2499 58.2782 23.8135C58.4299 23.8898 58.5514 24.015 58.6232 24.1689C58.695 24.3228 58.7128 24.4964 58.6738 24.6616C58.6349 24.8269 58.5413 24.9742 58.4083 25.0798C58.2753 25.1853 58.1106 25.243 57.9408 25.2435V25.2384Z" fill="white"/>
<g style="mix-blend-mode:overlay">
<path style="mix-blend-mode:overlay" d="M7.19805 38.0525C3.21539 35.2983 0.209524 32.7355 0.486447 32.3277C0.76337 31.9199 4.22741 33.8382 8.21511 36.5822C12.2028 39.3263 15.2087 41.8992 14.9267 42.307C14.6448 42.7148 11.1958 40.8066 7.19805 38.0525Z" fill="url(#paint3_radial_1_8080)"/>
<path style="mix-blend-mode:hard-light" d="M7.53012 37.5741C6.78494 37.0706 6.26131 36.5268 6.35698 36.3858C6.45264 36.2449 7.1374 36.547 7.86747 37.0605C8.59754 37.5741 9.14131 38.1078 9.04565 38.2488C8.94998 38.3898 8.28033 38.0877 7.53012 37.5741Z" fill="url(#paint4_radial_1_8080)"/>
<path style="mix-blend-mode:overlay" d="M8.53184 37.8863C5.8331 41.7884 3.28038 44.6986 2.82723 44.3814C2.37408 44.0642 4.18667 40.6505 6.88541 36.7484C9.58415 32.8463 12.1369 29.9361 12.59 30.2533C13.0432 30.5705 11.2255 33.9892 8.53184 37.8863Z" fill="url(#paint5_radial_1_8080)"/>
<path style="mix-blend-mode:hard-light" d="M7.99336 37.5136C7.48987 38.2588 6.93098 38.7774 6.77489 38.6666C6.61881 38.5558 6.90581 37.866 7.42441 37.1209C7.94301 36.3757 8.48174 35.8571 8.64286 35.9679C8.80398 36.0786 8.50693 36.7684 7.99336 37.5136Z" fill="url(#paint6_radial_1_8080)"/>
<g style="mix-blend-mode:overlay" opacity="0.5">
<path style="mix-blend-mode:overlay" d="M7.19805 38.0525C3.21539 35.2983 0.209524 32.7355 0.486447 32.3277C0.76337 31.9199 4.22741 33.8382 8.21511 36.5822C12.2028 39.3263 15.2087 41.8992 14.9267 42.307C14.6448 42.7148 11.1958 40.8066 7.19805 38.0525Z" fill="url(#paint7_radial_1_8080)"/>
<path style="mix-blend-mode:hard-light" d="M7.53012 37.5741C6.78494 37.0706 6.26131 36.5268 6.35698 36.3858C6.45264 36.2449 7.1374 36.547 7.86747 37.0605C8.59754 37.5741 9.14131 38.1078 9.04565 38.2488C8.94998 38.3898 8.28033 38.0877 7.53012 37.5741Z" fill="url(#paint8_radial_1_8080)"/>
<path style="mix-blend-mode:overlay" d="M8.53184 37.8863C5.8331 41.7884 3.28038 44.6986 2.82723 44.3814C2.37408 44.0642 4.18667 40.6505 6.88541 36.7484C9.58415 32.8463 12.1369 29.9361 12.59 30.2533C13.0432 30.5705 11.2255 33.9892 8.53184 37.8863Z" fill="url(#paint9_radial_1_8080)"/>
<path style="mix-blend-mode:hard-light" d="M7.99336 37.5136C7.48987 38.2588 6.93098 38.7774 6.77489 38.6666C6.61881 38.5558 6.90581 37.866 7.42441 37.1209C7.94301 36.3757 8.48174 35.8571 8.64286 35.9679C8.80398 36.0786 8.50693 36.7684 7.99336 37.5136Z" fill="url(#paint10_radial_1_8080)"/>
</g>
</g>
<defs>
<linearGradient id="paint0_linear_1_8080" x1="47.448" y1="2.59397" x2="47.448" y2="25.5886" gradientUnits="userSpaceOnUse">
<stop stop-color="#FFEBB5"/>
<stop offset="0.11" stop-color="#FFE9AD"/>
<stop offset="0.28" stop-color="#FFE396"/>
<stop offset="0.49" stop-color="#FFD971"/>
<stop offset="0.74" stop-color="#FFCC3E"/>
<stop offset="1" stop-color="#FFBC00"/>
</linearGradient>
<linearGradient id="paint1_linear_1_8080" x1="45.4587" y1="31.6882" x2="45.4587" y2="54.6779" gradientUnits="userSpaceOnUse">
<stop stop-color="#FFEBB5"/>
<stop offset="0.11" stop-color="#FFE9AD"/>
<stop offset="0.28" stop-color="#FFE396"/>
<stop offset="0.49" stop-color="#FFD971"/>
<stop offset="0.74" stop-color="#FFCC3E"/>
<stop offset="1" stop-color="#FFBC00"/>
</linearGradient>
<linearGradient id="paint2_linear_1_8080" x1="43.1526" y1="12.1373" x2="43.1526" y2="69.1835" gradientUnits="userSpaceOnUse">
<stop stop-color="white" stop-opacity="0.9"/>
<stop offset="0.04" stop-color="white" stop-opacity="0.83"/>
<stop offset="0.12" stop-color="white" stop-opacity="0.68"/>
<stop offset="0.19" stop-color="white" stop-opacity="0.58"/>
<stop offset="0.26" stop-color="white" stop-opacity="0.52"/>
<stop offset="0.32" stop-color="white" stop-opacity="0.5"/>
<stop offset="0.49" stop-color="#FEFEFE" stop-opacity="0.48"/>
<stop offset="0.69" stop-color="#FAFAFA" stop-opacity="0.43"/>
<stop offset="0.9" stop-color="#F3F3F3" stop-opacity="0.35"/>
<stop offset="1" stop-color="#EFEFEF" stop-opacity="0.3"/>
</linearGradient>
<radialGradient id="paint3_radial_1_8080" cx="0" cy="0" r="1" gradientUnits="userSpaceOnUse" gradientTransform="translate(-39.8876 128.14) rotate(124.509) scale(0.919934 8.7528)">
<stop stop-color="white"/>
<stop offset="0.05" stop-color="white" stop-opacity="0.89"/>
<stop offset="0.15" stop-color="white" stop-opacity="0.69"/>
<stop offset="0.26" stop-color="white" stop-opacity="0.5"/>
<stop offset="0.37" stop-color="white" stop-opacity="0.35"/>
<stop offset="0.48" stop-color="white" stop-opacity="0.22"/>
<stop offset="0.6" stop-color="white" stop-opacity="0.12"/>
<stop offset="0.72" stop-color="white" stop-opacity="0.05"/>
<stop offset="0.85" stop-color="white" stop-opacity="0.01"/>
<stop offset="1" stop-color="white" stop-opacity="0"/>
</radialGradient>
<radialGradient id="paint4_radial_1_8080" cx="0" cy="0" r="1" gradientUnits="userSpaceOnUse" gradientTransform="translate(-40.7611 124.322) rotate(124.508) scale(0.318702 1.63916)">
<stop stop-color="white"/>
<stop offset="0.05" stop-color="white" stop-opacity="0.89"/>
<stop offset="0.15" stop-color="white" stop-opacity="0.69"/>
<stop offset="0.26" stop-color="white" stop-opacity="0.5"/>
<stop offset="0.37" stop-color="white" stop-opacity="0.35"/>
<stop offset="0.48" stop-color="white" stop-opacity="0.22"/>
<stop offset="0.6" stop-color="white" stop-opacity="0.12"/>
<stop offset="0.72" stop-color="white" stop-opacity="0.05"/>
<stop offset="0.85" stop-color="white" stop-opacity="0.01"/>
<stop offset="1" stop-color="white" stop-opacity="0"/>
</radialGradient>
<radialGradient id="paint5_radial_1_8080" cx="0" cy="0" r="1" gradientUnits="userSpaceOnUse" gradientTransform="translate(-46.8803 38.3728) rotate(35.2176) scale(0.985893 8.5816)">
<stop stop-color="white"/>
<stop offset="0.05" stop-color="white" stop-opacity="0.89"/>
<stop offset="0.15" stop-color="white" stop-opacity="0.69"/>
<stop offset="0.26" stop-color="white" stop-opacity="0.5"/>
<stop offset="0.37" stop-color="white" stop-opacity="0.35"/>
<stop offset="0.48" stop-color="white" stop-opacity="0.22"/>
<stop offset="0.6" stop-color="white" stop-opacity="0.12"/>
<stop offset="0.72" stop-color="white" stop-opacity="0.05"/>
<stop offset="0.85" stop-color="white" stop-opacity="0.01"/>
<stop offset="1" stop-color="white" stop-opacity="0"/>
</radialGradient>
<radialGradient id="paint6_radial_1_8080" cx="0" cy="0" r="1" gradientUnits="userSpaceOnUse" gradientTransform="translate(-47.4954 38.2257) rotate(35.2176) scale(0.341552 1.63914)">
<stop stop-color="white"/>
<stop offset="0.05" stop-color="white" stop-opacity="0.89"/>
<stop offset="0.15" stop-color="white" stop-opacity="0.69"/>
<stop offset="0.26" stop-color="white" stop-opacity="0.5"/>
<stop offset="0.37" stop-color="white" stop-opacity="0.35"/>
<stop offset="0.48" stop-color="white" stop-opacity="0.22"/>
<stop offset="0.6" stop-color="white" stop-opacity="0.12"/>
<stop offset="0.72" stop-color="white" stop-opacity="0.05"/>
<stop offset="0.85" stop-color="white" stop-opacity="0.01"/>
<stop offset="1" stop-color="white" stop-opacity="0"/>
</radialGradient>
<radialGradient id="paint7_radial_1_8080" cx="0" cy="0" r="1" gradientUnits="userSpaceOnUse" gradientTransform="translate(-39.8876 128.14) rotate(124.509) scale(0.919934 8.7528)">
<stop stop-color="white"/>
<stop offset="0.05" stop-color="white" stop-opacity="0.89"/>
<stop offset="0.15" stop-color="white" stop-opacity="0.69"/>
<stop offset="0.26" stop-color="white" stop-opacity="0.5"/>
<stop offset="0.37" stop-color="white" stop-opacity="0.35"/>
<stop offset="0.48" stop-color="white" stop-opacity="0.22"/>
<stop offset="0.6" stop-color="white" stop-opacity="0.12"/>
<stop offset="0.72" stop-color="white" stop-opacity="0.05"/>
<stop offset="0.85" stop-color="white" stop-opacity="0.01"/>
<stop offset="1" stop-color="white" stop-opacity="0"/>
</radialGradient>
<radialGradient id="paint8_radial_1_8080" cx="0" cy="0" r="1" gradientUnits="userSpaceOnUse" gradientTransform="translate(-40.7611 124.322) rotate(124.508) scale(0.318702 1.63916)">
<stop stop-color="white"/>
<stop offset="0.05" stop-color="white" stop-opacity="0.89"/>
<stop offset="0.15" stop-color="white" stop-opacity="0.69"/>
<stop offset="0.26" stop-color="white" stop-opacity="0.5"/>
<stop offset="0.37" stop-color="white" stop-opacity="0.35"/>
<stop offset="0.48" stop-color="white" stop-opacity="0.22"/>
<stop offset="0.6" stop-color="white" stop-opacity="0.12"/>
<stop offset="0.72" stop-color="white" stop-opacity="0.05"/>
<stop offset="0.85" stop-color="white" stop-opacity="0.01"/>
<stop offset="1" stop-color="white" stop-opacity="0"/>
</radialGradient>
<radialGradient id="paint9_radial_1_8080" cx="0" cy="0" r="1" gradientUnits="userSpaceOnUse" gradientTransform="translate(-46.8803 38.3728) rotate(35.2176) scale(0.985893 8.5816)">
<stop stop-color="white"/>
<stop offset="0.05" stop-color="white" stop-opacity="0.89"/>
<stop offset="0.15" stop-color="white" stop-opacity="0.69"/>
<stop offset="0.26" stop-color="white" stop-opacity="0.5"/>
<stop offset="0.37" stop-color="white" stop-opacity="0.35"/>
<stop offset="0.48" stop-color="white" stop-opacity="0.22"/>
<stop offset="0.6" stop-color="white" stop-opacity="0.12"/>
<stop offset="0.72" stop-color="white" stop-opacity="0.05"/>
<stop offset="0.85" stop-color="white" stop-opacity="0.01"/>
<stop offset="1" stop-color="white" stop-opacity="0"/>
</radialGradient>
<radialGradient id="paint10_radial_1_8080" cx="0" cy="0" r="1" gradientUnits="userSpaceOnUse" gradientTransform="translate(-47.4954 38.2257) rotate(35.2176) scale(0.341552 1.63914)">
<stop stop-color="white"/>
<stop offset="0.05" stop-color="white" stop-opacity="0.89"/>
<stop offset="0.15" stop-color="white" stop-opacity="0.69"/>
<stop offset="0.26" stop-color="white" stop-opacity="0.5"/>
<stop offset="0.37" stop-color="white" stop-opacity="0.35"/>
<stop offset="0.48" stop-color="white" stop-opacity="0.22"/>
<stop offset="0.6" stop-color="white" stop-opacity="0.12"/>
<stop offset="0.72" stop-color="white" stop-opacity="0.05"/>
<stop offset="0.85" stop-color="white" stop-opacity="0.01"/>
<stop offset="1" stop-color="white" stop-opacity="0"/>
</radialGradient>
</defs>
</symbol>
<symbol id="step-icon4" width="67" height="67" viewBox="0 0 67 67" fill="none">
<defs>
		<linearGradient x1="39.483921" y1="0.000000" x2="39.483921" y2="36.382214" id="paint_linear_1_8112_0" gradientUnits="userSpaceOnUse">
			<stop stop-color="#FF8CB3"/>
			<stop offset="0.220000" stop-color="#FF84AE"/>
			<stop offset="0.570000" stop-color="#FF6DA1"/>
			<stop offset="1.000000" stop-color="#FF498B"/>
		</linearGradient>
		<linearGradient x1="39.483856" y1="15.684570" x2="39.483856" y2="45.591240" id="paint_linear_1_8113_0" gradientUnits="userSpaceOnUse">
			<stop stop-color="#FFFFFF" stop-opacity="0.901961"/>
			<stop offset="0.010000" stop-color="#FFFFFF" stop-opacity="0.839216"/>
			<stop offset="0.030000" stop-color="#FFFFFF" stop-opacity="0.729412"/>
			<stop offset="0.050000" stop-color="#FFFFFF" stop-opacity="0.650980"/>
			<stop offset="0.080000" stop-color="#FFFFFF" stop-opacity="0.580392"/>
			<stop offset="0.110000" stop-color="#FFFFFF" stop-opacity="0.529412"/>
			<stop offset="0.160000" stop-color="#FFFFFF" stop-opacity="0.509804"/>
			<stop offset="0.280000" stop-color="#FFFFFF" stop-opacity="0.501961"/>
			<stop offset="0.460000" stop-color="#FEFEFE" stop-opacity="0.478431"/>
			<stop offset="0.670000" stop-color="#FAFAFA" stop-opacity="0.431373"/>
			<stop offset="0.890000" stop-color="#F3F3F3" stop-opacity="0.349020"/>
			<stop offset="1.000000" stop-color="#EFEFEF" stop-opacity="0.301961"/>
		</linearGradient>
		<linearGradient x1="39.706947" y1="45.813461" x2="39.706947" y2="15.462345" id="paint_linear_1_8114_0" gradientUnits="userSpaceOnUse">
			<stop stop-color="#FFFFFF" stop-opacity="0.901961"/>
			<stop offset="0.030000" stop-color="#FFFFFF" stop-opacity="0.831373"/>
			<stop offset="0.110000" stop-color="#FFFFFF" stop-opacity="0.678431"/>
			<stop offset="0.170000" stop-color="#FFFFFF" stop-opacity="0.580392"/>
			<stop offset="0.230000" stop-color="#FFFFFF" stop-opacity="0.521569"/>
			<stop offset="0.280000" stop-color="#FFFFFF" stop-opacity="0.501961"/>
			<stop offset="0.460000" stop-color="#FEFEFE" stop-opacity="0.478431"/>
			<stop offset="0.670000" stop-color="#FAFAFA" stop-opacity="0.431373"/>
			<stop offset="0.890000" stop-color="#F3F3F3" stop-opacity="0.349020"/>
			<stop offset="1.000000" stop-color="#EFEFEF" stop-opacity="0.301961"/>
		</linearGradient>
		<linearGradient x1="29.248785" y1="8.866699" x2="29.248785" y2="53.088921" id="paint_linear_1_8115_0" gradientUnits="userSpaceOnUse">
			<stop stop-color="#FFFFFF" stop-opacity="0.901961"/>
			<stop offset="0.010000" stop-color="#FFFFFF" stop-opacity="0.839216"/>
			<stop offset="0.030000" stop-color="#FFFFFF" stop-opacity="0.729412"/>
			<stop offset="0.050000" stop-color="#FFFFFF" stop-opacity="0.650980"/>
			<stop offset="0.080000" stop-color="#FFFFFF" stop-opacity="0.580392"/>
			<stop offset="0.110000" stop-color="#FFFFFF" stop-opacity="0.529412"/>
			<stop offset="0.160000" stop-color="#FFFFFF" stop-opacity="0.509804"/>
			<stop offset="0.280000" stop-color="#FFFFFF" stop-opacity="0.501961"/>
			<stop offset="0.460000" stop-color="#FEFEFE" stop-opacity="0.478431"/>
			<stop offset="0.670000" stop-color="#FAFAFA" stop-opacity="0.431373"/>
			<stop offset="0.890000" stop-color="#F3F3F3" stop-opacity="0.349020"/>
			<stop offset="1.000000" stop-color="#EFEFEF" stop-opacity="0.301961"/>
		</linearGradient>
		<linearGradient x1="29.248886" y1="53.533474" x2="29.248886" y2="8.422363" id="paint_linear_1_8116_0" gradientUnits="userSpaceOnUse">
			<stop stop-color="#FFFFFF" stop-opacity="0.901961"/>
			<stop offset="0.030000" stop-color="#FFFFFF" stop-opacity="0.831373"/>
			<stop offset="0.110000" stop-color="#FFFFFF" stop-opacity="0.678431"/>
			<stop offset="0.170000" stop-color="#FFFFFF" stop-opacity="0.580392"/>
			<stop offset="0.230000" stop-color="#FFFFFF" stop-opacity="0.521569"/>
			<stop offset="0.280000" stop-color="#FFFFFF" stop-opacity="0.501961"/>
			<stop offset="0.460000" stop-color="#FEFEFE" stop-opacity="0.478431"/>
			<stop offset="0.670000" stop-color="#FAFAFA" stop-opacity="0.431373"/>
			<stop offset="0.890000" stop-color="#F3F3F3" stop-opacity="0.349020"/>
			<stop offset="1.000000" stop-color="#EFEFEF" stop-opacity="0.301961"/>
		</linearGradient>
		<linearGradient x1="30.078705" y1="55.794743" x2="30.078709" y2="64.368095" id="paint_linear_1_8118_0" gradientUnits="userSpaceOnUse">
			<stop stop-color="#FFFFFF" stop-opacity="0.901961"/>
			<stop offset="0.010000" stop-color="#FFFFFF" stop-opacity="0.839216"/>
			<stop offset="0.030000" stop-color="#FFFFFF" stop-opacity="0.729412"/>
			<stop offset="0.050000" stop-color="#FFFFFF" stop-opacity="0.650980"/>
			<stop offset="0.080000" stop-color="#FFFFFF" stop-opacity="0.580392"/>
			<stop offset="0.110000" stop-color="#FFFFFF" stop-opacity="0.529412"/>
			<stop offset="0.160000" stop-color="#FFFFFF" stop-opacity="0.509804"/>
			<stop offset="0.280000" stop-color="#FFFFFF" stop-opacity="0.501961"/>
			<stop offset="0.460000" stop-color="#FEFEFE" stop-opacity="0.478431"/>
			<stop offset="0.670000" stop-color="#FAFAFA" stop-opacity="0.431373"/>
			<stop offset="0.890000" stop-color="#F3F3F3" stop-opacity="0.349020"/>
			<stop offset="1.000000" stop-color="#EFEFEF" stop-opacity="0.301961"/>
		</linearGradient>
		<linearGradient x1="30.075680" y1="64.813309" x2="30.075680" y2="55.351078" id="paint_linear_1_8120_0" gradientUnits="userSpaceOnUse">
			<stop stop-color="#FFFFFF" stop-opacity="0.901961"/>
			<stop offset="0.030000" stop-color="#FFFFFF" stop-opacity="0.831373"/>
			<stop offset="0.110000" stop-color="#FFFFFF" stop-opacity="0.678431"/>
			<stop offset="0.170000" stop-color="#FFFFFF" stop-opacity="0.580392"/>
			<stop offset="0.230000" stop-color="#FFFFFF" stop-opacity="0.521569"/>
			<stop offset="0.280000" stop-color="#FFFFFF" stop-opacity="0.501961"/>
			<stop offset="0.460000" stop-color="#FEFEFE" stop-opacity="0.478431"/>
			<stop offset="0.670000" stop-color="#FAFAFA" stop-opacity="0.431373"/>
			<stop offset="0.890000" stop-color="#F3F3F3" stop-opacity="0.349020"/>
			<stop offset="1.000000" stop-color="#EFEFEF" stop-opacity="0.301961"/>
		</linearGradient>
		<linearGradient x1="48.187595" y1="55.796257" x2="48.187599" y2="64.369598" id="paint_linear_1_8121_0" gradientUnits="userSpaceOnUse">
			<stop stop-color="#FFFFFF" stop-opacity="0.901961"/>
			<stop offset="0.010000" stop-color="#FFFFFF" stop-opacity="0.839216"/>
			<stop offset="0.030000" stop-color="#FFFFFF" stop-opacity="0.729412"/>
			<stop offset="0.050000" stop-color="#FFFFFF" stop-opacity="0.650980"/>
			<stop offset="0.080000" stop-color="#FFFFFF" stop-opacity="0.580392"/>
			<stop offset="0.110000" stop-color="#FFFFFF" stop-opacity="0.529412"/>
			<stop offset="0.160000" stop-color="#FFFFFF" stop-opacity="0.509804"/>
			<stop offset="0.280000" stop-color="#FFFFFF" stop-opacity="0.501961"/>
			<stop offset="0.460000" stop-color="#FEFEFE" stop-opacity="0.478431"/>
			<stop offset="0.670000" stop-color="#FAFAFA" stop-opacity="0.431373"/>
			<stop offset="0.890000" stop-color="#F3F3F3" stop-opacity="0.349020"/>
			<stop offset="1.000000" stop-color="#EFEFEF" stop-opacity="0.301961"/>
		</linearGradient>
		<linearGradient x1="48.178207" y1="64.813339" x2="48.178207" y2="55.351105" id="paint_linear_1_8123_0" gradientUnits="userSpaceOnUse">
			<stop stop-color="#FFFFFF" stop-opacity="0.901961"/>
			<stop offset="0.030000" stop-color="#FFFFFF" stop-opacity="0.831373"/>
			<stop offset="0.110000" stop-color="#FFFFFF" stop-opacity="0.678431"/>
			<stop offset="0.170000" stop-color="#FFFFFF" stop-opacity="0.580392"/>
			<stop offset="0.230000" stop-color="#FFFFFF" stop-opacity="0.521569"/>
			<stop offset="0.280000" stop-color="#FFFFFF" stop-opacity="0.501961"/>
			<stop offset="0.460000" stop-color="#FEFEFE" stop-opacity="0.478431"/>
			<stop offset="0.670000" stop-color="#FAFAFA" stop-opacity="0.431373"/>
			<stop offset="0.890000" stop-color="#F3F3F3" stop-opacity="0.349020"/>
			<stop offset="1.000000" stop-color="#EFEFEF" stop-opacity="0.301961"/>
		</linearGradient>
	</defs>
	<path id="Vector" d="M26.35 0L52.6 0C54.39 0 55.83 1.44 55.83 3.22L55.83 33.15C55.83 34.93 54.39 36.38 52.6 36.38L26.35 36.38C24.57 36.38 23.13 34.93 23.13 33.15L23.13 3.22C23.13 1.44 24.57 0 26.35 0Z" fill="url(#paint_linear_1_8112_0)" fill-opacity="1.000000" fill-rule="evenodd"/>
	<path id="Vector" d="M62.79 15.68L12.61 15.68L21.55 45.59L56.02 45.59C56.78 45.59 57.53 45.34 58.14 44.88C58.76 44.42 59.21 43.78 59.43 43.04L66.2 20.25C66.36 19.72 66.39 19.16 66.29 18.61C66.19 18.07 65.97 17.55 65.64 17.11C65.31 16.67 64.88 16.3 64.38 16.06C63.89 15.81 63.34 15.68 62.79 15.68Z" fill="url(#paint_linear_1_8113_0)" fill-opacity="1.000000" fill-rule="nonzero"/>
	<path id="Vector" d="M22 45.59L56.02 45.59C56.78 45.59 57.53 45.34 58.14 44.88C58.76 44.42 59.21 43.78 59.43 43.04L66.2 20.25C66.36 19.72 66.39 19.16 66.29 18.61C66.2 18.07 65.97 17.55 65.64 17.11C65.31 16.67 64.88 16.3 64.39 16.06C63.89 15.81 63.34 15.68 62.79 15.68L13.06 15.68" stroke="url(#paint_linear_1_8114_0)" stroke-opacity="1.000000" stroke-width="1.000000" stroke-linejoin="round" stroke-linecap="round"/>
	<path id="Vector" d="M56.5 53.08L21.7 53.08C21.37 53.08 21.04 52.98 20.77 52.78C20.5 52.57 20.31 52.29 20.21 51.97L8.26 11.97L2 11.97C1.58 11.97 1.19 11.81 0.89 11.52C0.6 11.23 0.44 10.83 0.44 10.42C0.44 10 0.6 9.61 0.89 9.32C1.19 9.03 1.58 8.86 2 8.86L9.42 8.86C9.75 8.86 10.08 8.97 10.35 9.17C10.62 9.37 10.81 9.65 10.91 9.97L22.86 49.97L56.5 49.97C56.91 49.97 57.31 50.14 57.6 50.43C57.89 50.72 58.05 51.12 58.05 51.53C58.05 51.94 57.89 52.34 57.6 52.63C57.31 52.92 56.91 53.08 56.5 53.08Z" fill="url(#paint_linear_1_8115_0)" fill-opacity="1.000000" fill-rule="nonzero"/>
	<path id="Vector" d="M9.42 8.86C9.75 8.86 10.08 8.97 10.35 9.17C10.62 9.37 10.81 9.65 10.91 9.97L22.86 49.97L56.5 49.97C56.91 49.97 57.31 50.14 57.6 50.43C57.89 50.72 58.05 51.12 58.05 51.53C58.05 51.94 57.89 52.34 57.6 52.63C57.31 52.92 56.91 53.08 56.5 53.08L21.7 53.08C21.37 53.08 21.04 52.98 20.77 52.78C20.5 52.58 20.31 52.29 20.21 51.97L8.26 11.97L2 11.97C1.58 11.97 1.19 11.81 0.89 11.52C0.6 11.23 0.44 10.83 0.44 10.42C0.44 10 0.6 9.61 0.89 9.32C1.19 9.03 1.58 8.86 2 8.86L9.42 8.86ZM9.42 8.42L2 8.42C1.46 8.42 0.96 8.63 0.58 9C0.21 9.38 0 9.89 0 10.42C0 10.95 0.21 11.46 0.58 11.83C0.96 12.21 1.46 12.42 2 12.42L7.93 12.42L19.79 52.1C19.91 52.51 20.16 52.87 20.51 53.13C20.85 53.39 21.27 53.53 21.7 53.53L56.5 53.53C57.03 53.53 57.54 53.32 57.91 52.94C58.29 52.57 58.5 52.06 58.5 51.53C58.5 51 58.29 50.49 57.91 50.11C57.54 49.74 57.03 49.53 56.5 49.53L23.2 49.53L11.33 9.85C11.21 9.44 10.96 9.08 10.61 8.82C10.27 8.56 9.85 8.42 9.42 8.42L9.42 8.42Z" fill="url(#paint_linear_1_8116_0)" fill-opacity="1.000000" fill-rule="nonzero"/>
	<g style="mix-blend-mode:soft-light">
		<path id="Vector" d="M2 9.85L10.85 9.85C10.74 9.57 10.54 9.32 10.28 9.15C10.03 8.97 9.73 8.88 9.42 8.88L2 8.88C1.75 8.88 1.5 8.93 1.28 9.04C1.06 9.16 0.87 9.32 0.73 9.52C0.59 9.72 0.49 9.95 0.46 10.19C0.42 10.44 0.44 10.69 0.52 10.92C0.63 10.61 0.82 10.34 1.09 10.15C1.35 9.96 1.67 9.85 2 9.85Z" fill="#FFFFFF" fill-opacity="1.000000" fill-rule="nonzero"/>
	</g>
	<path id="Vector" d="M33.1 57.04C34.77 58.72 34.77 61.43 33.1 63.1C31.43 64.78 28.71 64.78 27.04 63.1C25.37 61.43 25.37 58.72 27.04 57.04C28.71 55.37 31.43 55.37 33.1 57.04Z" fill="url(#paint_linear_1_8118_0)" fill-opacity="1.000000" fill-rule="evenodd"/>
	<g style="mix-blend-mode:soft-light">
		<path id="Vector" d="M30.07 56.49C31.15 56.49 32.18 56.9 32.97 57.63C33.76 58.36 34.25 59.35 34.34 60.43C34.34 60.31 34.34 60.2 34.34 60.08C34.3 58.96 33.83 57.91 33.03 57.13C32.23 56.36 31.16 55.92 30.05 55.92C28.94 55.92 27.87 56.36 27.07 57.13C26.27 57.91 25.8 58.96 25.76 60.08C25.76 60.2 25.76 60.31 25.76 60.43C25.85 59.35 26.35 58.34 27.15 57.61C27.94 56.89 28.99 56.48 30.07 56.49Z" fill="#FFFFFF" fill-opacity="1.000000" fill-rule="nonzero"/>
	</g>
	<path id="Vector" d="M30.07 55.79C30.92 55.79 31.75 56.04 32.45 56.51C33.16 56.99 33.71 57.66 34.03 58.44C34.36 59.22 34.44 60.09 34.28 60.92C34.11 61.75 33.7 62.51 33.1 63.11C32.5 63.71 31.74 64.12 30.9 64.29C30.07 64.45 29.21 64.37 28.43 64.04C27.64 63.72 26.97 63.16 26.5 62.46C26.03 61.75 25.78 60.92 25.78 60.08C25.78 58.94 26.24 57.85 27.04 57.05C27.84 56.24 28.93 55.79 30.07 55.79ZM30.07 55.35C29.13 55.35 28.22 55.62 27.44 56.14C26.66 56.66 26.05 57.4 25.69 58.27C25.34 59.13 25.24 60.08 25.42 61C25.61 61.92 26.06 62.76 26.72 63.43C27.38 64.09 28.23 64.54 29.14 64.72C30.06 64.9 31.01 64.81 31.88 64.45C32.74 64.09 33.48 63.49 34 62.71C34.52 61.93 34.8 61.01 34.8 60.08C34.8 58.82 34.3 57.62 33.41 56.73C32.53 55.85 31.32 55.35 30.07 55.35Z" fill="url(#paint_linear_1_8120_0)" fill-opacity="1.000000" fill-rule="nonzero"/>
	<path id="Vector" d="M49.17 55.91C51.47 56.46 52.89 58.77 52.35 61.07C51.8 63.37 49.49 64.8 47.19 64.25C44.89 63.71 43.46 61.4 44.01 59.09C44.56 56.79 46.86 55.37 49.17 55.91Z" fill="url(#paint_linear_1_8121_0)" fill-opacity="1.000000" fill-rule="evenodd"/>
	<g style="mix-blend-mode:soft-light">
		<path id="Vector" d="M48.17 56.49C49.25 56.49 50.28 56.9 51.07 57.63C51.87 58.35 52.35 59.35 52.44 60.43C52.44 60.31 52.44 60.2 52.44 60.08C52.34 59.01 51.85 58.02 51.06 57.3C50.27 56.58 49.24 56.18 48.17 56.18C47.1 56.18 46.07 56.58 45.28 57.3C44.49 58.02 43.99 59.01 43.9 60.08C43.9 60.2 43.9 60.31 43.9 60.43C43.99 59.35 44.48 58.35 45.27 57.63C46.06 56.9 47.1 56.49 48.17 56.49Z" fill="#FFFFFF" fill-opacity="1.000000" fill-rule="nonzero"/>
	</g>
	<path id="Vector" d="M48.17 55.79C49.02 55.79 49.85 56.04 50.56 56.51C51.27 56.98 51.82 57.65 52.15 58.43C52.47 59.21 52.56 60.08 52.39 60.91C52.23 61.74 51.82 62.51 51.22 63.11C50.62 63.71 49.86 64.12 49.03 64.29C48.19 64.45 47.33 64.37 46.55 64.04C45.76 63.72 45.09 63.17 44.62 62.46C44.15 61.75 43.9 60.92 43.9 60.08C43.9 58.94 44.35 57.85 45.16 57.05C45.96 56.24 47.05 55.79 48.19 55.79L48.17 55.79ZM48.19 55.35C47.25 55.34 46.33 55.62 45.55 56.14C44.77 56.65 44.16 57.39 43.8 58.26C43.44 59.12 43.34 60.07 43.52 60.99C43.71 61.91 44.16 62.76 44.82 63.42C45.48 64.09 46.32 64.54 47.24 64.72C48.16 64.9 49.11 64.81 49.98 64.45C50.85 64.09 51.58 63.49 52.11 62.71C52.63 61.93 52.9 61.01 52.9 60.08C52.9 58.82 52.4 57.62 51.51 56.73C50.63 55.85 49.43 55.35 48.17 55.35L48.19 55.35Z" fill="url(#paint_linear_1_8123_0)" fill-opacity="1.000000" fill-rule="nonzero"/>
</symbol>
    </svg>
